# MagicaVoxel @ Ephtracy

# material
mtllib BrokenLog3.mtl
usemtl palette

# normals
vn -1 0 0
vn 1 0 0
vn 0 0 1
vn 0 0 -1
vn 0 -1 0
vn 0 1 0

# texcoords
vt 0.177734 0.5
vt 0.205078 0.5
vt 0.306641 0.5
vt 0.373047 0.5

# verts
v -1.5 0 -6.5
v -1.5 0 -9.5
v -1.5 1 -7.5
v -1.5 1 -8.5
v -1.5 11 -6.5
v -1.5 11 -7.5
v -1.5 11 -8.5
v -1.5 11 -9.5
v -0.5 0 -9.5
v -0.5 0 -13.5
v -0.5 1 -9.5
v -0.5 1 -10.5
v -0.5 1 -12.5
v -0.5 1 -13.5
v -0.5 11 -9.5
v -0.5 11 -10.5
v -0.5 11 -12.5
v -0.5 11 -13.5
v 0.5 0 -13.5
v 0.5 0 -15.5
v 0.5 1 -13.5
v 0.5 1 -14.5
v 0.5 11 -13.5
v 0.5 11 -14.5
v 0.5 11 -15.5
v 1.5 0 -15.5
v 1.5 0 -16.5
v 1.5 11 -15.5
v 1.5 11 -16.5
v 2.5 0 -16.5
v 2.5 0 -18.5
v 2.5 1 -16.5
v 2.5 1 -18.5
v 2.5 11 -16.5
v 2.5 11 -18.5
v 3.5 0 -18.5
v 3.5 0 -19.5
v 3.5 0 -20.5
v 3.5 1 -18.5
v 3.5 1 -19.5
v 3.5 11 -18.5
v 3.5 11 -20.5
v 7.5 0 -6.5
v 7.5 0 -7.5
v 7.5 11 -6.5
v 7.5 11 -7.5
v 8.5 0 -5.5
v 8.5 0 -6.5
v 8.5 11 -5.5
v 8.5 11 -6.5
v 10.5 0 -4.5
v 10.5 0 -5.5
v 10.5 1 -4.5
v 10.5 1 -5.5
v 10.5 11 -4.5
v 10.5 11 -5.5
v 11.5 0 -3.5
v 11.5 0 -4.5
v 11.5 1 -3.5
v 11.5 1 -4.5
v 11.5 11 -3.5
v 11.5 11 -4.5
v 0.5 0 -6.5
v 0.5 0 -7.5
v 0.5 1 -6.5
v 0.5 1 -7.5
v 0.5 10 -6.5
v 0.5 10 -7.5
v 0.5 11 -6.5
v 0.5 11 -7.5
v 4.5 0 -19.5
v 4.5 0 -20.5
v 4.5 11 -19.5
v 4.5 11 -20.5
v 7.5 0 -18.5
v 7.5 0 -19.5
v 7.5 11 -18.5
v 7.5 11 -19.5
v 9.5 0 -17.5
v 9.5 0 -18.5
v 9.5 11 -17.5
v 9.5 11 -18.5
v 11.5 0 -16.5
v 11.5 0 -17.5
v 11.5 11 -16.5
v 11.5 11 -17.5
v 12.5 0 -15.5
v 12.5 0 -16.5
v 12.5 11 -15.5
v 12.5 11 -16.5
v 13.5 0 -14.5
v 13.5 0 -15.5
v 13.5 11 -14.5
v 13.5 11 -15.5
v 14.5 0 -3.5
v 14.5 0 -4.5
v 14.5 0 -13.5
v 14.5 0 -14.5
v 14.5 11 -3.5
v 14.5 11 -4.5
v 14.5 11 -13.5
v 14.5 11 -14.5
v 15.5 0 -12.5
v 15.5 0 -13.5
v 15.5 11 -12.5
v 15.5 11 -13.5
v 16.5 0 -4.5
v 16.5 0 -5.5
v 16.5 0 -11.5
v 16.5 0 -12.5
v 16.5 1 -4.5
v 16.5 1 -5.5
v 16.5 11 -4.5
v 16.5 11 -5.5
v 16.5 11 -11.5
v 16.5 11 -12.5
v 17.5 0 -5.5
v 17.5 0 -6.5
v 17.5 0 -9.5
v 17.5 0 -11.5
v 17.5 1 -5.5
v 17.5 1 -6.5
v 17.5 11 -5.5
v 17.5 11 -6.5
v 17.5 11 -9.5
v 17.5 11 -11.5
v 18.5 0 -6.5
v 18.5 0 -7.5
v 18.5 0 -9.5
v 18.5 1 -6.5
v 18.5 1 -7.5
v 18.5 11 -6.5
v 18.5 11 -9.5
v 11.5 0 -3.5
v 11.5 1 -3.5
v 11.5 11 -3.5
v 13.5 1 -3.5
v 13.5 11 -3.5
v 14.5 0 -3.5
v 14.5 11 -3.5
v 10.5 0 -4.5
v 10.5 1 -4.5
v 10.5 11 -4.5
v 11.5 0 -4.5
v 11.5 1 -4.5
v 11.5 11 -4.5
v 14.5 0 -4.5
v 14.5 11 -4.5
v 15.5 1 -4.5
v 15.5 11 -4.5
v 16.5 0 -4.5
v 16.5 1 -4.5
v 16.5 11 -4.5
v 8.5 0 -5.5
v 8.5 11 -5.5
v 10.5 0 -5.5
v 10.5 1 -5.5
v 10.5 11 -5.5
v 16.5 0 -5.5
v 16.5 1 -5.5
v 16.5 11 -5.5
v 17.5 0 -5.5
v 17.5 1 -5.5
v 17.5 11 -5.5
v -1.5 0 -6.5
v -1.5 11 -6.5
v -0.5 1 -6.5
v -0.5 10 -6.5
v 0.5 0 -6.5
v 0.5 1 -6.5
v 0.5 10 -6.5
v 0.5 11 -6.5
v 7.5 0 -6.5
v 7.5 11 -6.5
v 8.5 0 -6.5
v 8.5 11 -6.5
v 17.5 0 -6.5
v 17.5 1 -6.5
v 17.5 11 -6.5
v 18.5 0 -6.5
v 18.5 1 -6.5
v 18.5 11 -6.5
v 0.5 0 -7.5
v 0.5 1 -7.5
v 0.5 10 -7.5
v 0.5 11 -7.5
v 2.5 1 -7.5
v 2.5 11 -7.5
v 4.5 1 -7.5
v 4.5 11 -7.5
v 6.5 1 -7.5
v 6.5 11 -7.5
v 7.5 0 -7.5
v 7.5 11 -7.5
v -1.5 0 -9.5
v -1.5 11 -9.5
v -0.5 0 -9.5
v -0.5 1 -9.5
v -0.5 11 -9.5
v 17.5 0 -9.5
v 17.5 11 -9.5
v 18.5 0 -9.5
v 18.5 11 -9.5
v 16.5 0 -11.5
v 16.5 11 -11.5
v 17.5 0 -11.5
v 17.5 11 -11.5
v 15.5 0 -12.5
v 15.5 11 -12.5
v 16.5 0 -12.5
v 16.5 11 -12.5
v -0.5 0 -13.5
v -0.5 1 -13.5
v -0.5 11 -13.5
v 0.5 0 -13.5
v 0.5 1 -13.5
v 0.5 11 -13.5
v 14.5 0 -13.5
v 14.5 11 -13.5
v 15.5 0 -13.5
v 15.5 11 -13.5
v 13.5 0 -14.5
v 13.5 11 -14.5
v 14.5 0 -14.5
v 14.5 11 -14.5
v 0.5 0 -15.5
v 0.5 11 -15.5
v 1.5 0 -15.5
v 1.5 11 -15.5
v 12.5 0 -15.5
v 12.5 11 -15.5
v 13.5 0 -15.5
v 13.5 11 -15.5
v 1.5 0 -16.5
v 1.5 11 -16.5
v 2.5 0 -16.5
v 2.5 1 -16.5
v 2.5 11 -16.5
v 11.5 0 -16.5
v 11.5 11 -16.5
v 12.5 0 -16.5
v 12.5 11 -16.5
v 9.5 0 -17.5
v 9.5 11 -17.5
v 11.5 0 -17.5
v 11.5 11 -17.5
v 2.5 0 -18.5
v 2.5 1 -18.5
v 2.5 11 -18.5
v 3.5 0 -18.5
v 3.5 1 -18.5
v 3.5 11 -18.5
v 7.5 0 -18.5
v 7.5 11 -18.5
v 9.5 0 -18.5
v 9.5 11 -18.5
v 4.5 0 -19.5
v 4.5 11 -19.5
v 7.5 0 -19.5
v 7.5 11 -19.5
v 3.5 0 -20.5
v 3.5 11 -20.5
v 4.5 0 -20.5
v 4.5 11 -20.5
v 11.5 0 -3.5
v 14.5 0 -3.5
v 10.5 0 -4.5
v 11.5 0 -4.5
v 14.5 0 -4.5
v 16.5 0 -4.5
v 8.5 0 -5.5
v 10.5 0 -5.5
v 16.5 0 -5.5
v 17.5 0 -5.5
v -1.5 0 -6.5
v 0.5 0 -6.5
v 7.5 0 -6.5
v 8.5 0 -6.5
v 17.5 0 -6.5
v 18.5 0 -6.5
v 0.5 0 -7.5
v 7.5 0 -7.5
v 17.5 0 -7.5
v 18.5 0 -7.5
v -1.5 0 -9.5
v -0.5 0 -9.5
v 16.5 0 -9.5
v 17.5 0 -9.5
v 18.5 0 -9.5
v 15.5 0 -11.5
v 16.5 0 -11.5
v 17.5 0 -11.5
v 14.5 0 -12.5
v 15.5 0 -12.5
v 16.5 0 -12.5
v -0.5 0 -13.5
v 0.5 0 -13.5
v 13.5 0 -13.5
v 14.5 0 -13.5
v 15.5 0 -13.5
v 12.5 0 -14.5
v 13.5 0 -14.5
v 14.5 0 -14.5
v 0.5 0 -15.5
v 1.5 0 -15.5
v 11.5 0 -15.5
v 12.5 0 -15.5
v 13.5 0 -15.5
v 1.5 0 -16.5
v 2.5 0 -16.5
v 9.5 0 -16.5
v 11.5 0 -16.5
v 12.5 0 -16.5
v 7.5 0 -17.5
v 9.5 0 -17.5
v 11.5 0 -17.5
v 2.5 0 -18.5
v 3.5 0 -18.5
v 4.5 0 -18.5
v 7.5 0 -18.5
v 9.5 0 -18.5
v 3.5 0 -19.5
v 4.5 0 -19.5
v 7.5 0 -19.5
v 3.5 0 -20.5
v 4.5 0 -20.5
v 11.5 11 -3.5
v 13.5 11 -3.5
v 14.5 11 -3.5
v 10.5 11 -4.5
v 11.5 11 -4.5
v 12.5 11 -4.5
v 13.5 11 -4.5
v 14.5 11 -4.5
v 15.5 11 -4.5
v 16.5 11 -4.5
v 8.5 11 -5.5
v 10.5 11 -5.5
v 16.5 11 -5.5
v 17.5 11 -5.5
v -1.5 11 -6.5
v 0.5 11 -6.5
v 7.5 11 -6.5
v 8.5 11 -6.5
v 9.5 11 -6.5
v 10.5 11 -6.5
v 11.5 11 -6.5
v 12.5 11 -6.5
v 14.5 11 -6.5
v 15.5 11 -6.5
v 17.5 11 -6.5
v 18.5 11 -6.5
v -1.5 11 -7.5
v 0.5 11 -7.5
v 2.5 11 -7.5
v 4.5 11 -7.5
v 6.5 11 -7.5
v 7.5 11 -7.5
v 10.5 11 -7.5
v 11.5 11 -7.5
v 16.5 11 -7.5
v 17.5 11 -7.5
v -1.5 11 -8.5
v 2.5 11 -8.5
v 4.5 11 -8.5
v 5.5 11 -8.5
v 6.5 11 -8.5
v 8.5 11 -8.5
v 9.5 11 -8.5
v 10.5 11 -8.5
v 13.5 11 -8.5
v 14.5 11 -8.5
v -1.5 11 -9.5
v -0.5 11 -9.5
v 2.5 11 -9.5
v 3.5 11 -9.5
v 5.5 11 -9.5
v 7.5 11 -9.5
v 8.5 11 -9.5
v 15.5 11 -9.5
v 16.5 11 -9.5
v 17.5 11 -9.5
v 18.5 11 -9.5
v -0.5 11 -10.5
v 3.5 11 -10.5
v 5.5 11 -10.5
v 7.5 11 -10.5
v 8.5 11 -10.5
v 9.5 11 -10.5
v 12.5 11 -10.5
v 13.5 11 -10.5
v 14.5 11 -10.5
v 15.5 11 -10.5
v 3.5 11 -11.5
v 5.5 11 -11.5
v 6.5 11 -11.5
v 8.5 11 -11.5
v 11.5 11 -11.5
v 12.5 11 -11.5
v 16.5 11 -11.5
v 17.5 11 -11.5
v -0.5 11 -12.5
v 3.5 11 -12.5
v 5.5 11 -12.5
v 6.5 11 -12.5
v 10.5 11 -12.5
v 11.5 11 -12.5
v 13.5 11 -12.5
v 14.5 11 -12.5
v 15.5 11 -12.5
v 16.5 11 -12.5
v -0.5 11 -13.5
v 0.5 11 -13.5
v 2.5 11 -13.5
v 5.5 11 -13.5
v 8.5 11 -13.5
v 10.5 11 -13.5
v 12.5 11 -13.5
v 13.5 11 -13.5
v 14.5 11 -13.5
v 15.5 11 -13.5
v 0.5 11 -14.5
v 2.5 11 -14.5
v 6.5 11 -14.5
v 8.5 11 -14.5
v 10.5 11 -14.5
v 12.5 11 -14.5
v 13.5 11 -14.5
v 14.5 11 -14.5
v 0.5 11 -15.5
v 1.5 11 -15.5
v 4.5 11 -15.5
v 6.5 11 -15.5
v 9.5 11 -15.5
v 10.5 11 -15.5
v 12.5 11 -15.5
v 13.5 11 -15.5
v 1.5 11 -16.5
v 2.5 11 -16.5
v 4.5 11 -16.5
v 7.5 11 -16.5
v 9.5 11 -16.5
v 11.5 11 -16.5
v 12.5 11 -16.5
v 4.5 11 -17.5
v 7.5 11 -17.5
v 9.5 11 -17.5
v 11.5 11 -17.5
v 2.5 11 -18.5
v 3.5 11 -18.5
v 4.5 11 -18.5
v 7.5 11 -18.5
v 9.5 11 -18.5
v 4.5 11 -19.5
v 7.5 11 -19.5
v 3.5 11 -20.5
v 4.5 11 -20.5

# faces
f 3/2/1 2/2/1 1/2/1
f 4/2/1 2/2/1 3/2/1
f 5/2/1 3/2/1 1/2/1
f 6/1/1 4/1/1 3/1/1
f 6/2/1 3/2/1 5/2/1
f 7/2/1 2/2/1 4/2/1
f 7/1/1 4/1/1 6/1/1
f 8/2/1 2/2/1 7/2/1
f 11/2/1 10/2/1 9/2/1
f 12/2/1 10/2/1 11/2/1
f 13/2/1 10/2/1 12/2/1
f 14/2/1 10/2/1 13/2/1
f 15/1/1 12/1/1 11/1/1
f 16/2/1 13/2/1 12/2/1
f 16/1/1 12/1/1 15/1/1
f 17/1/1 14/1/1 13/1/1
f 17/2/1 13/2/1 16/2/1
f 18/1/1 14/1/1 17/1/1
f 21/2/1 20/2/1 19/2/1
f 22/2/1 20/2/1 21/2/1
f 23/1/1 22/1/1 21/1/1
f 24/2/1 20/2/1 22/2/1
f 24/1/1 22/1/1 23/1/1
f 25/2/1 20/2/1 24/2/1
f 28/2/1 27/2/1 26/2/1
f 29/2/1 27/2/1 28/2/1
f 32/2/1 31/2/1 30/2/1
f 33/2/1 31/2/1 32/2/1
f 34/1/1 33/1/1 32/1/1
f 35/1/1 33/1/1 34/1/1
f 39/2/1 37/2/1 36/2/1
f 40/4/1 38/4/1 37/4/1
f 40/2/1 37/2/1 39/2/1
f 41/4/1 40/4/1 39/4/1
f 42/4/1 38/4/1 40/4/1
f 42/4/1 40/4/1 41/4/1
f 45/2/1 44/2/1 43/2/1
f 46/2/1 44/2/1 45/2/1
f 49/2/1 48/2/1 47/2/1
f 50/2/1 48/2/1 49/2/1
f 53/2/1 52/2/1 51/2/1
f 54/2/1 52/2/1 53/2/1
f 55/1/1 54/1/1 53/1/1
f 56/1/1 54/1/1 55/1/1
f 59/2/1 58/2/1 57/2/1
f 60/2/1 58/2/1 59/2/1
f 61/1/1 60/1/1 59/1/1
f 62/1/1 60/1/1 61/1/1
f 63/2/2 64/2/2 65/2/2
f 65/2/2 64/2/2 66/2/2
f 65/1/2 66/1/2 67/1/2
f 67/1/2 66/1/2 68/1/2
f 67/2/2 68/2/2 69/2/2
f 69/2/2 68/2/2 70/2/2
f 71/4/2 72/4/2 73/4/2
f 73/4/2 72/4/2 74/4/2
f 75/4/2 76/4/2 77/4/2
f 77/4/2 76/4/2 78/4/2
f 79/4/2 80/4/2 81/4/2
f 81/4/2 80/4/2 82/4/2
f 83/4/2 84/4/2 85/4/2
f 85/4/2 84/4/2 86/4/2
f 87/4/2 88/4/2 89/4/2
f 89/4/2 88/4/2 90/4/2
f 91/4/2 92/4/2 93/4/2
f 93/4/2 92/4/2 94/4/2
f 95/2/2 96/2/2 99/2/2
f 99/2/2 96/2/2 100/2/2
f 97/4/2 98/4/2 101/4/2
f 101/4/2 98/4/2 102/4/2
f 103/4/2 104/4/2 105/4/2
f 105/4/2 104/4/2 106/4/2
f 107/2/2 108/2/2 111/2/2
f 111/2/2 108/2/2 112/2/2
f 111/1/2 112/1/2 113/1/2
f 113/1/2 112/1/2 114/1/2
f 109/4/2 110/4/2 115/4/2
f 115/4/2 110/4/2 116/4/2
f 117/2/2 118/2/2 121/2/2
f 121/2/2 118/2/2 122/2/2
f 121/1/2 122/1/2 123/1/2
f 123/1/2 122/1/2 124/1/2
f 119/4/2 120/4/2 125/4/2
f 125/4/2 120/4/2 126/4/2
f 127/2/2 128/2/2 130/2/2
f 128/4/2 129/4/2 131/4/2
f 130/2/2 128/2/2 131/2/2
f 130/4/2 131/4/2 132/4/2
f 131/4/2 129/4/2 133/4/2
f 132/4/2 131/4/2 133/4/2
f 137/2/3 135/2/3 134/2/3
f 137/1/3 136/1/3 135/1/3
f 138/1/3 136/1/3 137/1/3
f 139/2/3 137/2/3 134/2/3
f 139/2/3 138/2/3 137/2/3
f 140/2/3 138/2/3 139/2/3
f 144/2/3 142/2/3 141/2/3
f 145/1/3 143/1/3 142/1/3
f 145/2/3 142/2/3 144/2/3
f 146/1/3 143/1/3 145/1/3
f 149/2/3 148/2/3 147/2/3
f 150/2/3 148/2/3 149/2/3
f 151/2/3 149/2/3 147/2/3
f 152/1/3 150/1/3 149/1/3
f 152/2/3 149/2/3 151/2/3
f 153/1/3 150/1/3 152/1/3
f 156/2/3 155/2/3 154/2/3
f 157/2/3 155/2/3 156/2/3
f 158/2/3 155/2/3 157/2/3
f 162/2/3 160/2/3 159/2/3
f 163/1/3 161/1/3 160/1/3
f 163/2/3 160/2/3 162/2/3
f 164/1/3 161/1/3 163/1/3
f 167/2/3 166/2/3 165/2/3
f 168/2/3 166/2/3 167/2/3
f 169/2/3 167/2/3 165/2/3
f 170/1/3 168/1/3 167/1/3
f 170/2/3 167/2/3 169/2/3
f 171/2/3 166/2/3 168/2/3
f 171/1/3 168/1/3 170/1/3
f 172/2/3 166/2/3 171/2/3
f 175/2/3 174/2/3 173/2/3
f 176/2/3 174/2/3 175/2/3
f 180/2/3 178/2/3 177/2/3
f 181/4/3 179/4/3 178/4/3
f 181/2/3 178/2/3 180/2/3
f 182/4/3 179/4/3 181/4/3
f 187/2/3 184/2/3 183/2/3
f 187/1/3 186/1/3 185/1/3
f 187/1/3 185/1/3 184/1/3
f 188/1/3 186/1/3 187/1/3
f 189/2/3 187/2/3 183/2/3
f 189/2/3 188/2/3 187/2/3
f 190/2/3 188/2/3 189/2/3
f 191/2/3 189/2/3 183/2/3
f 191/1/3 190/1/3 189/1/3
f 192/1/3 190/1/3 191/1/3
f 193/2/3 191/2/3 183/2/3
f 193/2/3 192/2/3 191/2/3
f 194/2/3 192/2/3 193/2/3
f 195/2/4 196/2/4 197/2/4
f 197/2/4 196/2/4 198/2/4
f 198/2/4 196/2/4 199/2/4
f 200/4/4 201/4/4 202/4/4
f 202/4/4 201/4/4 203/4/4
f 204/4/4 205/4/4 206/4/4
f 206/4/4 205/4/4 207/4/4
f 208/4/4 209/4/4 210/4/4
f 210/4/4 209/4/4 211/4/4
f 212/2/4 213/2/4 215/2/4
f 213/1/4 214/1/4 216/1/4
f 215/2/4 213/2/4 216/2/4
f 216/1/4 214/1/4 217/1/4
f 218/4/4 219/4/4 220/4/4
f 220/4/4 219/4/4 221/4/4
f 222/4/4 223/4/4 224/4/4
f 224/4/4 223/4/4 225/4/4
f 226/2/4 227/2/4 228/2/4
f 228/2/4 227/2/4 229/2/4
f 230/4/4 231/4/4 232/4/4
f 232/4/4 231/4/4 233/4/4
f 234/2/4 235/2/4 236/2/4
f 236/2/4 235/2/4 237/2/4
f 237/2/4 235/2/4 238/2/4
f 239/4/4 240/4/4 241/4/4
f 241/4/4 240/4/4 242/4/4
f 243/4/4 244/4/4 245/4/4
f 245/4/4 244/4/4 246/4/4
f 247/2/4 248/2/4 250/2/4
f 248/1/4 249/1/4 251/1/4
f 250/2/4 248/2/4 251/2/4
f 251/1/4 249/1/4 252/1/4
f 253/4/4 254/4/4 255/4/4
f 255/4/4 254/4/4 256/4/4
f 257/4/4 258/4/4 259/4/4
f 259/4/4 258/4/4 260/4/4
f 261/4/4 262/4/4 263/4/4
f 263/4/4 262/4/4 264/4/4
f 268/2/5 266/2/5 265/2/5
f 269/2/5 266/2/5 268/2/5
f 272/2/5 268/2/5 267/2/5
f 272/2/5 270/2/5 269/2/5
f 272/2/5 269/2/5 268/2/5
f 273/2/5 270/2/5 272/2/5
f 278/2/5 272/2/5 271/2/5
f 278/2/5 273/2/5 272/2/5
f 278/2/5 274/2/5 273/2/5
f 279/2/5 274/2/5 278/2/5
f 281/2/5 276/2/5 275/2/5
f 282/2/5 280/2/5 279/2/5
f 282/2/5 278/2/5 277/2/5
f 282/2/5 279/2/5 278/2/5
f 283/2/5 280/2/5 282/2/5
f 284/2/5 280/2/5 283/2/5
f 285/2/5 281/2/5 275/2/5
f 285/2/5 282/2/5 281/2/5
f 285/2/5 283/2/5 282/2/5
f 286/2/5 283/2/5 285/2/5
f 287/2/5 283/2/5 286/2/5
f 288/4/5 284/4/5 283/4/5
f 288/2/5 283/2/5 287/2/5
f 289/4/5 284/4/5 288/4/5
f 290/2/5 287/2/5 286/2/5
f 291/4/5 288/4/5 287/4/5
f 291/2/5 287/2/5 290/2/5
f 292/4/5 288/4/5 291/4/5
f 293/2/5 290/2/5 286/2/5
f 294/4/5 291/4/5 290/4/5
f 294/2/5 290/2/5 293/2/5
f 295/4/5 291/4/5 294/4/5
f 296/2/5 293/2/5 286/2/5
f 297/2/5 293/2/5 296/2/5
f 298/2/5 293/2/5 297/2/5
f 299/4/5 294/4/5 293/4/5
f 299/2/5 293/2/5 298/2/5
f 300/4/5 294/4/5 299/4/5
f 301/2/5 298/2/5 297/2/5
f 302/4/5 299/4/5 298/4/5
f 302/2/5 298/2/5 301/2/5
f 303/4/5 299/4/5 302/4/5
f 304/2/5 301/2/5 297/2/5
f 305/2/5 301/2/5 304/2/5
f 306/2/5 301/2/5 305/2/5
f 307/4/5 302/4/5 301/4/5
f 307/2/5 301/2/5 306/2/5
f 308/4/5 302/4/5 307/4/5
f 309/2/5 306/2/5 305/2/5
f 310/2/5 306/2/5 309/2/5
f 311/2/5 306/2/5 310/2/5
f 312/4/5 307/4/5 306/4/5
f 312/2/5 306/2/5 311/2/5
f 313/4/5 307/4/5 312/4/5
f 314/2/5 311/2/5 310/2/5
f 315/4/5 312/4/5 311/4/5
f 315/2/5 311/2/5 314/2/5
f 316/4/5 312/4/5 315/4/5
f 317/2/5 314/2/5 310/2/5
f 318/2/5 314/2/5 317/2/5
f 319/2/5 314/2/5 318/2/5
f 320/4/5 315/4/5 314/4/5
f 320/2/5 314/2/5 319/2/5
f 321/4/5 315/4/5 320/4/5
f 322/2/5 319/2/5 318/2/5
f 323/4/5 320/4/5 319/4/5
f 323/2/5 319/2/5 322/2/5
f 324/4/5 320/4/5 323/4/5
f 325/4/5 323/4/5 322/4/5
f 326/4/5 323/4/5 325/4/5
f 327/1/6 328/1/6 331/1/6
f 331/1/6 328/1/6 332/1/6
f 328/2/6 329/2/6 333/2/6
f 332/1/6 328/1/6 333/1/6
f 333/2/6 329/2/6 334/2/6
f 331/1/6 332/1/6 338/1/6
f 330/1/6 331/1/6 338/1/6
f 335/1/6 336/1/6 339/1/6
f 337/2/6 338/2/6 344/2/6
f 344/2/6 338/2/6 345/2/6
f 338/1/6 332/1/6 346/1/6
f 345/2/6 338/2/6 346/2/6
f 346/1/6 332/1/6 347/1/6
f 334/2/6 335/2/6 348/2/6
f 347/1/6 332/1/6 348/1/6
f 332/2/6 333/2/6 348/2/6
f 333/2/6 334/2/6 348/2/6
f 348/2/6 335/2/6 349/2/6
f 335/1/6 339/1/6 350/1/6
f 349/2/6 335/2/6 350/2/6
f 339/1/6 340/1/6 350/1/6
f 350/1/6 340/1/6 351/1/6
f 341/2/6 342/2/6 353/2/6
f 353/2/6 342/2/6 354/2/6
f 343/2/6 344/2/6 358/2/6
f 344/2/6 345/2/6 358/2/6
f 346/1/6 347/1/6 359/1/6
f 345/1/6 346/1/6 359/1/6
f 348/2/6 349/2/6 360/2/6
f 359/1/6 347/1/6 360/1/6
f 347/2/6 348/2/6 360/2/6
f 349/1/6 350/1/6 361/1/6
f 350/1/6 351/1/6 361/1/6
f 351/4/6 352/4/6 362/4/6
f 361/1/6 351/1/6 362/1/6
f 353/1/6 354/1/6 363/1/6
f 354/1/6 355/1/6 363/1/6
f 355/2/6 356/2/6 364/2/6
f 363/1/6 355/1/6 364/1/6
f 356/1/6 357/1/6 365/1/6
f 364/2/6 356/2/6 365/2/6
f 365/1/6 357/1/6 366/1/6
f 357/2/6 358/2/6 367/2/6
f 366/1/6 357/1/6 367/1/6
f 358/2/6 345/2/6 368/2/6
f 367/2/6 358/2/6 368/2/6
f 345/1/6 359/1/6 369/1/6
f 368/2/6 345/2/6 369/2/6
f 359/2/6 360/2/6 370/2/6
f 369/1/6 359/1/6 370/1/6
f 360/2/6 349/2/6 371/2/6
f 370/2/6 360/2/6 371/2/6
f 349/1/6 361/1/6 372/1/6
f 371/2/6 349/2/6 372/2/6
f 363/2/6 364/2/6 373/2/6
f 373/2/6 364/2/6 374/2/6
f 365/1/6 366/1/6 375/1/6
f 374/2/6 364/2/6 375/2/6
f 364/1/6 365/1/6 375/1/6
f 375/1/6 366/1/6 376/1/6
f 366/2/6 367/2/6 377/2/6
f 376/1/6 366/1/6 377/1/6
f 367/2/6 368/2/6 377/2/6
f 377/2/6 368/2/6 378/2/6
f 368/1/6 369/1/6 379/1/6
f 378/2/6 368/2/6 379/2/6
f 372/1/6 361/1/6 380/1/6
f 371/1/6 372/1/6 380/1/6
f 361/4/6 362/4/6 381/4/6
f 380/1/6 361/1/6 381/1/6
f 362/4/6 352/4/6 382/4/6
f 381/4/6 362/4/6 382/4/6
f 382/4/6 352/4/6 383/4/6
f 375/1/6 376/1/6 384/1/6
f 374/1/6 375/1/6 384/1/6
f 376/2/6 377/2/6 385/2/6
f 384/1/6 376/1/6 385/1/6
f 377/2/6 378/2/6 385/2/6
f 385/2/6 378/2/6 386/2/6
f 378/1/6 379/1/6 387/1/6
f 386/2/6 378/2/6 387/2/6
f 379/1/6 369/1/6 388/1/6
f 387/1/6 379/1/6 388/1/6
f 370/2/6 371/2/6 389/2/6
f 388/1/6 369/1/6 389/1/6
f 369/2/6 370/2/6 389/2/6
f 389/2/6 371/2/6 390/2/6
f 371/1/6 380/1/6 391/1/6
f 390/2/6 371/2/6 391/2/6
f 391/1/6 380/1/6 392/1/6
f 381/4/6 382/4/6 393/4/6
f 392/1/6 380/1/6 393/1/6
f 380/4/6 381/4/6 393/4/6
f 384/2/6 385/2/6 394/2/6
f 385/2/6 386/2/6 394/2/6
f 387/1/6 388/1/6 395/1/6
f 394/2/6 386/2/6 395/2/6
f 386/1/6 387/1/6 395/1/6
f 395/1/6 388/1/6 396/1/6
f 388/2/6 389/2/6 397/2/6
f 396/1/6 388/1/6 397/1/6
f 389/2/6 390/2/6 397/2/6
f 397/2/6 390/2/6 398/2/6
f 391/1/6 392/1/6 399/1/6
f 398/2/6 390/2/6 399/2/6
f 390/1/6 391/1/6 399/1/6
f 393/4/6 382/4/6 400/4/6
f 392/4/6 393/4/6 400/4/6
f 400/4/6 382/4/6 401/4/6
f 384/2/6 394/2/6 402/2/6
f 395/1/6 396/1/6 403/1/6
f 402/2/6 394/2/6 403/2/6
f 394/1/6 395/1/6 403/1/6
f 403/1/6 396/1/6 404/1/6
f 397/2/6 398/2/6 405/2/6
f 404/1/6 396/1/6 405/1/6
f 396/2/6 397/2/6 405/2/6
f 405/2/6 398/2/6 406/2/6
f 398/1/6 399/1/6 407/1/6
f 406/2/6 398/2/6 407/2/6
f 399/1/6 392/1/6 408/1/6
f 407/1/6 399/1/6 408/1/6
f 392/4/6 400/4/6 409/4/6
f 408/1/6 392/1/6 409/1/6
f 409/4/6 400/4/6 410/4/6
f 410/4/6 400/4/6 411/4/6
f 403/1/6 404/1/6 412/1/6
f 402/1/6 403/1/6 412/1/6
f 412/1/6 404/1/6 413/1/6
f 413/1/6 404/1/6 414/1/6
f 405/2/6 406/2/6 415/2/6
f 414/1/6 404/1/6 415/1/6
f 404/2/6 405/2/6 415/2/6
f 415/2/6 406/2/6 416/2/6
f 406/1/6 407/1/6 417/1/6
f 416/2/6 406/2/6 417/2/6
f 407/1/6 408/1/6 417/1/6
f 417/1/6 408/1/6 418/1/6
f 409/4/6 410/4/6 419/4/6
f 418/1/6 408/1/6 419/1/6
f 408/4/6 409/4/6 419/4/6
f 419/4/6 410/4/6 420/4/6
f 420/4/6 410/4/6 421/4/6
f 413/1/6 414/1/6 422/1/6
f 415/2/6 416/2/6 423/2/6
f 422/1/6 414/1/6 423/1/6
f 414/2/6 415/2/6 423/2/6
f 423/2/6 416/2/6 424/2/6
f 417/1/6 418/1/6 425/1/6
f 424/2/6 416/2/6 425/2/6
f 416/1/6 417/1/6 425/1/6
f 425/1/6 418/1/6 426/1/6
f 418/4/6 419/4/6 427/4/6
f 426/1/6 418/1/6 427/1/6
f 419/4/6 420/4/6 427/4/6
f 427/4/6 420/4/6 428/4/6
f 428/4/6 420/4/6 429/4/6
f 423/2/6 424/2/6 430/2/6
f 422/2/6 423/2/6 430/2/6
f 430/2/6 424/2/6 431/2/6
f 431/2/6 424/2/6 432/2/6
f 425/1/6 426/1/6 433/1/6
f 432/2/6 424/2/6 433/2/6
f 424/1/6 425/1/6 433/1/6
f 433/1/6 426/1/6 434/1/6
f 427/4/6 428/4/6 435/4/6
f 434/1/6 426/1/6 435/1/6
f 426/4/6 427/4/6 435/4/6
f 435/4/6 428/4/6 436/4/6
f 436/4/6 428/4/6 437/4/6
f 431/2/6 432/2/6 438/2/6
f 438/2/6 432/2/6 439/2/6
f 433/1/6 434/1/6 440/1/6
f 439/2/6 432/2/6 440/2/6
f 432/1/6 433/1/6 440/1/6
f 440/1/6 434/1/6 441/1/6
f 435/4/6 436/4/6 442/4/6
f 441/1/6 434/1/6 442/1/6
f 434/4/6 435/4/6 442/4/6
f 442/4/6 436/4/6 443/4/6
f 443/4/6 436/4/6 444/4/6
f 440/1/6 441/1/6 445/1/6
f 439/1/6 440/1/6 445/1/6
f 442/4/6 443/4/6 446/4/6
f 445/1/6 441/1/6 446/1/6
f 441/4/6 442/4/6 446/4/6
f 446/4/6 443/4/6 447/4/6
f 447/4/6 443/4/6 448/4/6
f 439/1/6 445/1/6 449/1/6
f 449/1/6 445/1/6 450/1/6
f 445/4/6 446/4/6 451/4/6
f 450/1/6 445/1/6 451/1/6
f 446/4/6 447/4/6 451/4/6
f 451/4/6 447/4/6 452/4/6
f 452/4/6 447/4/6 453/4/6
f 450/4/6 451/4/6 454/4/6
f 451/4/6 452/4/6 454/4/6
f 454/4/6 452/4/6 455/4/6
f 450/4/6 454/4/6 456/4/6
f 456/4/6 454/4/6 457/4/6
