# MagicaVoxel @ Ephtracy

# material
mtllib BrokenLog5.mtl
usemtl palette

# normals
vn -1 0 0
vn 1 0 0
vn 0 0 1
vn 0 0 -1
vn 0 -1 0
vn 0 1 0

# texcoords
vt 0.177734 0.5
vt 0.205078 0.5
vt 0.306641 0.5
vt 0.373047 0.5

# verts
v -12.5 0 16.5
v -12.5 0 15.5
v -12.5 11 16.5
v -12.5 11 15.5
v -11.5 0 17.5
v -11.5 0 16.5
v -11.5 11 17.5
v -11.5 11 16.5
v -10.5 0 15.5
v -10.5 0 14.5
v -10.5 1 15.5
v -10.5 1 14.5
v -10.5 11 15.5
v -10.5 11 14.5
v -9.5 0 18.5
v -9.5 0 17.5
v -9.5 0 14.5
v -9.5 0 12.5
v -9.5 1 14.5
v -9.5 1 13.5
v -9.5 11 18.5
v -9.5 11 17.5
v -9.5 11 14.5
v -9.5 11 13.5
v -9.5 11 12.5
v -8.5 0 12.5
v -8.5 0 11.5
v -8.5 11 12.5
v -8.5 11 11.5
v -7.5 0 19.5
v -7.5 0 18.5
v -7.5 11 19.5
v -7.5 11 18.5
v -5.5 0 11.5
v -5.5 0 10.5
v -5.5 1 11.5
v -5.5 1 10.5
v -5.5 11 11.5
v -5.5 11 10.5
v -4.5 0 20.5
v -4.5 0 19.5
v -4.5 0 10.5
v -4.5 0 9.5
v -4.5 1 10.5
v -4.5 1 9.5
v -4.5 11 20.5
v -4.5 11 19.5
v -4.5 11 10.5
v -4.5 11 9.5
v -3.5 0 9.5
v -3.5 0 6.5
v -3.5 1 9.5
v -3.5 1 8.5
v -3.5 1 6.5
v -3.5 11 9.5
v -3.5 11 8.5
v -3.5 11 6.5
v -1.5 0 6.5
v -1.5 0 5.5
v -1.5 1 6.5
v -1.5 1 5.5
v -1.5 11 6.5
v -1.5 11 5.5
v 1.5 0 5.5
v 1.5 0 4.5
v 1.5 1 5.5
v 1.5 11 5.5
v 1.5 11 4.5
v 3.5 0 5.5
v 3.5 0 4.5
v 3.5 1 5.5
v 3.5 1 4.5
v 3.5 11 5.5
v 3.5 11 4.5
v 4.5 0 20.5
v 4.5 0 19.5
v 4.5 0 6.5
v 4.5 0 5.5
v 4.5 1 6.5
v 4.5 11 20.5
v 4.5 11 19.5
v 4.5 11 6.5
v 4.5 11 5.5
v 5.5 0 7.5
v 5.5 0 6.5
v 5.5 1 7.5
v 5.5 1 6.5
v 5.5 11 7.5
v 5.5 11 6.5
v 6.5 0 9.5
v 6.5 0 7.5
v 6.5 1 9.5
v 6.5 1 8.5
v 6.5 11 9.5
v 6.5 11 8.5
v 6.5 11 7.5
v 7.5 0 19.5
v 7.5 0 18.5
v 7.5 0 10.5
v 7.5 0 9.5
v 7.5 1 10.5
v 7.5 1 9.5
v 7.5 11 19.5
v 7.5 11 18.5
v 7.5 11 10.5
v 7.5 11 9.5
v 8.5 0 11.5
v 8.5 0 10.5
v 8.5 1 11.5
v 8.5 1 10.5
v 8.5 11 11.5
v 8.5 11 10.5
v 9.5 0 18.5
v 9.5 0 17.5
v 9.5 11 18.5
v 9.5 11 17.5
v 10.5 0 12.5
v 10.5 0 11.5
v 10.5 1 12.5
v 10.5 11 12.5
v 10.5 11 11.5
v 11.5 0 17.5
v 11.5 0 16.5
v 11.5 0 14.5
v 11.5 0 12.5
v 11.5 1 14.5
v 11.5 1 12.5
v 11.5 11 17.5
v 11.5 11 16.5
v 11.5 11 14.5
v 11.5 11 12.5
v 12.5 0 16.5
v 12.5 0 15.5
v 12.5 0 14.5
v 12.5 1 15.5
v 12.5 1 14.5
v 12.5 11 16.5
v 12.5 11 14.5
v -4.5 0 20.5
v -4.5 11 20.5
v 4.5 0 20.5
v 4.5 11 20.5
v -7.5 0 19.5
v -7.5 11 19.5
v -4.5 0 19.5
v -4.5 11 19.5
v 4.5 0 19.5
v 4.5 11 19.5
v 7.5 0 19.5
v 7.5 11 19.5
v -9.5 0 18.5
v -9.5 11 18.5
v -7.5 0 18.5
v -7.5 11 18.5
v 7.5 0 18.5
v 7.5 11 18.5
v 9.5 0 18.5
v 9.5 11 18.5
v -11.5 0 17.5
v -11.5 11 17.5
v -9.5 0 17.5
v -9.5 11 17.5
v 9.5 0 17.5
v 9.5 11 17.5
v 11.5 0 17.5
v 11.5 11 17.5
v -12.5 0 16.5
v -12.5 11 16.5
v -11.5 0 16.5
v -11.5 11 16.5
v 11.5 0 16.5
v 11.5 11 16.5
v 12.5 0 16.5
v 12.5 11 16.5
v -12.5 0 15.5
v -12.5 11 15.5
v -11.5 0 15.5
v -11.5 1 15.5
v -10.5 0 15.5
v -10.5 1 15.5
v -10.5 11 15.5
v -10.5 0 14.5
v -10.5 1 14.5
v -10.5 11 14.5
v -9.5 0 14.5
v -9.5 1 14.5
v -9.5 11 14.5
v 11.5 0 14.5
v 11.5 1 14.5
v 11.5 11 14.5
v 12.5 0 14.5
v 12.5 1 14.5
v 12.5 11 14.5
v -9.5 0 12.5
v -9.5 11 12.5
v -8.5 0 12.5
v -8.5 11 12.5
v 10.5 0 12.5
v 10.5 1 12.5
v 10.5 11 12.5
v 11.5 0 12.5
v 11.5 1 12.5
v 11.5 11 12.5
v -8.5 0 11.5
v -8.5 11 11.5
v -5.5 0 11.5
v -5.5 1 11.5
v -5.5 11 11.5
v 8.5 0 11.5
v 8.5 1 11.5
v 8.5 11 11.5
v 10.5 0 11.5
v 10.5 11 11.5
v -5.5 0 10.5
v -5.5 1 10.5
v -5.5 11 10.5
v -4.5 0 10.5
v -4.5 1 10.5
v -4.5 11 10.5
v 7.5 0 10.5
v 7.5 1 10.5
v 7.5 11 10.5
v 8.5 0 10.5
v 8.5 1 10.5
v 8.5 11 10.5
v -4.5 0 9.5
v -4.5 1 9.5
v -4.5 11 9.5
v -3.5 0 9.5
v -3.5 1 9.5
v -3.5 11 9.5
v 6.5 0 9.5
v 6.5 1 9.5
v 6.5 11 9.5
v 7.5 0 9.5
v 7.5 1 9.5
v 7.5 11 9.5
v 5.5 0 7.5
v 5.5 1 7.5
v 5.5 11 7.5
v 6.5 0 7.5
v 6.5 11 7.5
v -3.5 0 6.5
v -3.5 1 6.5
v -3.5 11 6.5
v -2.5 1 6.5
v -2.5 11 6.5
v -1.5 0 6.5
v -1.5 1 6.5
v -1.5 11 6.5
v 4.5 0 6.5
v 4.5 1 6.5
v 4.5 11 6.5
v 5.5 0 6.5
v 5.5 1 6.5
v 5.5 11 6.5
v -1.5 0 5.5
v -1.5 1 5.5
v -1.5 11 5.5
v 1.5 0 5.5
v 1.5 1 5.5
v 1.5 11 5.5
v 3.5 0 5.5
v 3.5 1 5.5
v 3.5 11 5.5
v 4.5 0 5.5
v 4.5 11 5.5
v 1.5 0 4.5
v 1.5 11 4.5
v 2.5 1 4.5
v 2.5 11 4.5
v 3.5 0 4.5
v 3.5 1 4.5
v 3.5 11 4.5
v -4.5 0 20.5
v 4.5 0 20.5
v -7.5 0 19.5
v -4.5 0 19.5
v 4.5 0 19.5
v 7.5 0 19.5
v -9.5 0 18.5
v -7.5 0 18.5
v -4.5 0 18.5
v 4.5 0 18.5
v 7.5 0 18.5
v 9.5 0 18.5
v -11.5 0 17.5
v -9.5 0 17.5
v -7.5 0 17.5
v 7.5 0 17.5
v 9.5 0 17.5
v 11.5 0 17.5
v -12.5 0 16.5
v -11.5 0 16.5
v -9.5 0 16.5
v 9.5 0 16.5
v 11.5 0 16.5
v 12.5 0 16.5
v -12.5 0 15.5
v -11.5 0 15.5
v -10.5 0 15.5
v 11.5 0 15.5
v 12.5 0 15.5
v -10.5 0 14.5
v -9.5 0 14.5
v 11.5 0 14.5
v 12.5 0 14.5
v -9.5 0 12.5
v -8.5 0 12.5
v 10.5 0 12.5
v 11.5 0 12.5
v -8.5 0 11.5
v -5.5 0 11.5
v 8.5 0 11.5
v 10.5 0 11.5
v -5.5 0 10.5
v -4.5 0 10.5
v 7.5 0 10.5
v 8.5 0 10.5
v -4.5 0 9.5
v -3.5 0 9.5
v 6.5 0 9.5
v 7.5 0 9.5
v 5.5 0 7.5
v 6.5 0 7.5
v -3.5 0 6.5
v -1.5 0 6.5
v 4.5 0 6.5
v 5.5 0 6.5
v -1.5 0 5.5
v 1.5 0 5.5
v 3.5 0 5.5
v 4.5 0 5.5
v 1.5 0 4.5
v 3.5 0 4.5
v -4.5 11 20.5
v 4.5 11 20.5
v -7.5 11 19.5
v -4.5 11 19.5
v 4.5 11 19.5
v 7.5 11 19.5
v -9.5 11 18.5
v -7.5 11 18.5
v -4.5 11 18.5
v 4.5 11 18.5
v 7.5 11 18.5
v 9.5 11 18.5
v -11.5 11 17.5
v -9.5 11 17.5
v -7.5 11 17.5
v -4.5 11 17.5
v 4.5 11 17.5
v 7.5 11 17.5
v 9.5 11 17.5
v 11.5 11 17.5
v -12.5 11 16.5
v -11.5 11 16.5
v -9.5 11 16.5
v -7.5 11 16.5
v -4.5 11 16.5
v 4.5 11 16.5
v 7.5 11 16.5
v 9.5 11 16.5
v 11.5 11 16.5
v 12.5 11 16.5
v -12.5 11 15.5
v -10.5 11 15.5
v -9.5 11 15.5
v -6.5 11 15.5
v -4.5 11 15.5
v 4.5 11 15.5
v 6.5 11 15.5
v 9.5 11 15.5
v 10.5 11 15.5
v -10.5 11 14.5
v -9.5 11 14.5
v -8.5 11 14.5
v -6.5 11 14.5
v 6.5 11 14.5
v 8.5 11 14.5
v 10.5 11 14.5
v 11.5 11 14.5
v 12.5 11 14.5
v -9.5 11 13.5
v -8.5 11 13.5
v -3.5 11 13.5
v 4.5 11 13.5
v 8.5 11 13.5
v 10.5 11 13.5
v -9.5 11 12.5
v -8.5 11 12.5
v -5.5 11 12.5
v -3.5 11 12.5
v 4.5 11 12.5
v 6.5 11 12.5
v 10.5 11 12.5
v 11.5 11 12.5
v -8.5 11 11.5
v -5.5 11 11.5
v 6.5 11 11.5
v 8.5 11 11.5
v 10.5 11 11.5
v -5.5 11 10.5
v -4.5 11 10.5
v -3.5 11 10.5
v 3.5 11 10.5
v 7.5 11 10.5
v 8.5 11 10.5
v -4.5 11 9.5
v -3.5 11 9.5
v 3.5 11 9.5
v 5.5 11 9.5
v 6.5 11 9.5
v 7.5 11 9.5
v -3.5 11 8.5
v 3.5 11 8.5
v 5.5 11 8.5
v 6.5 11 8.5
v -2.5 11 7.5
v 2.5 11 7.5
v 3.5 11 7.5
v 5.5 11 7.5
v 6.5 11 7.5
v -3.5 11 6.5
v -2.5 11 6.5
v -1.5 11 6.5
v 2.5 11 6.5
v 4.5 11 6.5
v 5.5 11 6.5
v -1.5 11 5.5
v 1.5 11 5.5
v 2.5 11 5.5
v 3.5 11 5.5
v 4.5 11 5.5
v 1.5 11 4.5
v 2.5 11 4.5
v 3.5 11 4.5

# faces
f 3/4/1 2/4/1 1/4/1
f 4/4/1 2/4/1 3/4/1
f 7/4/1 6/4/1 5/4/1
f 8/4/1 6/4/1 7/4/1
f 11/2/1 10/2/1 9/2/1
f 12/2/1 10/2/1 11/2/1
f 13/1/1 12/1/1 11/1/1
f 14/1/1 12/1/1 13/1/1
f 19/2/1 18/2/1 17/2/1
f 20/2/1 18/2/1 19/2/1
f 21/4/1 16/4/1 15/4/1
f 22/4/1 16/4/1 21/4/1
f 23/1/1 20/1/1 19/1/1
f 24/2/1 18/2/1 20/2/1
f 24/1/1 20/1/1 23/1/1
f 25/2/1 18/2/1 24/2/1
f 28/2/1 27/2/1 26/2/1
f 29/2/1 27/2/1 28/2/1
f 32/4/1 31/4/1 30/4/1
f 33/4/1 31/4/1 32/4/1
f 36/2/1 35/2/1 34/2/1
f 37/2/1 35/2/1 36/2/1
f 38/1/1 37/1/1 36/1/1
f 39/1/1 37/1/1 38/1/1
f 44/2/1 43/2/1 42/2/1
f 45/2/1 43/2/1 44/2/1
f 46/4/1 41/4/1 40/4/1
f 47/4/1 41/4/1 46/4/1
f 48/1/1 45/1/1 44/1/1
f 49/1/1 45/1/1 48/1/1
f 52/2/1 51/2/1 50/2/1
f 53/2/1 51/2/1 52/2/1
f 54/2/1 51/2/1 53/2/1
f 55/2/1 53/2/1 52/2/1
f 56/1/1 54/1/1 53/1/1
f 56/2/1 53/2/1 55/2/1
f 57/1/1 54/1/1 56/1/1
f 60/2/1 59/2/1 58/2/1
f 61/2/1 59/2/1 60/2/1
f 62/1/1 61/1/1 60/1/1
f 63/1/1 61/1/1 62/1/1
f 66/2/1 65/2/1 64/2/1
f 67/2/1 65/2/1 66/2/1
f 68/2/1 65/2/1 67/2/1
f 69/2/2 70/2/2 71/2/2
f 71/2/2 70/2/2 72/2/2
f 71/1/2 72/1/2 73/1/2
f 73/1/2 72/1/2 74/1/2
f 77/2/2 78/2/2 79/2/2
f 75/4/2 76/4/2 80/4/2
f 80/4/2 76/4/2 81/4/2
f 79/2/2 78/2/2 82/2/2
f 82/2/2 78/2/2 83/2/2
f 84/2/2 85/2/2 86/2/2
f 86/2/2 85/2/2 87/2/2
f 86/1/2 87/1/2 88/1/2
f 88/1/2 87/1/2 89/1/2
f 90/2/2 91/2/2 92/2/2
f 92/2/2 91/2/2 93/2/2
f 92/1/2 93/1/2 94/1/2
f 93/2/2 91/2/2 95/2/2
f 94/1/2 93/1/2 95/1/2
f 95/2/2 91/2/2 96/2/2
f 99/2/2 100/2/2 101/2/2
f 101/2/2 100/2/2 102/2/2
f 97/4/2 98/4/2 103/4/2
f 103/4/2 98/4/2 104/4/2
f 101/1/2 102/1/2 105/1/2
f 105/1/2 102/1/2 106/1/2
f 107/2/2 108/2/2 109/2/2
f 109/2/2 108/2/2 110/2/2
f 109/1/2 110/1/2 111/1/2
f 111/1/2 110/1/2 112/1/2
f 113/4/2 114/4/2 115/4/2
f 115/4/2 114/4/2 116/4/2
f 117/2/2 118/2/2 119/2/2
f 119/2/2 118/2/2 120/2/2
f 120/2/2 118/2/2 121/2/2
f 124/2/2 125/2/2 126/2/2
f 126/2/2 125/2/2 127/2/2
f 122/4/2 123/4/2 128/4/2
f 128/4/2 123/4/2 129/4/2
f 126/1/2 127/1/2 130/1/2
f 130/1/2 127/1/2 131/1/2
f 132/4/2 133/4/2 135/4/2
f 133/2/2 134/2/2 135/2/2
f 135/2/2 134/2/2 136/2/2
f 132/4/2 135/4/2 137/4/2
f 135/4/2 136/4/2 137/4/2
f 137/4/2 136/4/2 138/4/2
f 141/4/3 140/4/3 139/4/3
f 142/4/3 140/4/3 141/4/3
f 145/4/3 144/4/3 143/4/3
f 146/4/3 144/4/3 145/4/3
f 149/4/3 148/4/3 147/4/3
f 150/4/3 148/4/3 149/4/3
f 153/4/3 152/4/3 151/4/3
f 154/4/3 152/4/3 153/4/3
f 157/4/3 156/4/3 155/4/3
f 158/4/3 156/4/3 157/4/3
f 161/4/3 160/4/3 159/4/3
f 162/4/3 160/4/3 161/4/3
f 165/4/3 164/4/3 163/4/3
f 166/4/3 164/4/3 165/4/3
f 169/4/3 168/4/3 167/4/3
f 170/4/3 168/4/3 169/4/3
f 173/4/3 172/4/3 171/4/3
f 174/4/3 172/4/3 173/4/3
f 175/4/4 176/4/4 177/4/4
f 177/4/4 176/4/4 178/4/4
f 177/2/4 178/2/4 179/2/4
f 178/4/4 176/4/4 180/4/4
f 179/2/4 178/2/4 180/2/4
f 180/4/4 176/4/4 181/4/4
f 182/2/4 183/2/4 185/2/4
f 183/1/4 184/1/4 186/1/4
f 185/2/4 183/2/4 186/2/4
f 186/1/4 184/1/4 187/1/4
f 188/2/4 189/2/4 191/2/4
f 189/4/4 190/4/4 192/4/4
f 191/2/4 189/2/4 192/2/4
f 192/4/4 190/4/4 193/4/4
f 194/2/4 195/2/4 196/2/4
f 196/2/4 195/2/4 197/2/4
f 198/2/4 199/2/4 201/2/4
f 199/1/4 200/1/4 202/1/4
f 201/2/4 199/2/4 202/2/4
f 202/1/4 200/1/4 203/1/4
f 204/2/4 205/2/4 206/2/4
f 206/2/4 205/2/4 207/2/4
f 207/2/4 205/2/4 208/2/4
f 209/2/4 210/2/4 212/2/4
f 210/2/4 211/2/4 212/2/4
f 212/2/4 211/2/4 213/2/4
f 214/2/4 215/2/4 217/2/4
f 215/1/4 216/1/4 218/1/4
f 217/2/4 215/2/4 218/2/4
f 218/1/4 216/1/4 219/1/4
f 220/2/4 221/2/4 223/2/4
f 221/1/4 222/1/4 224/1/4
f 223/2/4 221/2/4 224/2/4
f 224/1/4 222/1/4 225/1/4
f 226/2/4 227/2/4 229/2/4
f 227/1/4 228/1/4 230/1/4
f 229/2/4 227/2/4 230/2/4
f 230/1/4 228/1/4 231/1/4
f 232/2/4 233/2/4 235/2/4
f 233/1/4 234/1/4 236/1/4
f 235/2/4 233/2/4 236/2/4
f 236/1/4 234/1/4 237/1/4
f 238/2/4 239/2/4 241/2/4
f 239/2/4 240/2/4 241/2/4
f 241/2/4 240/2/4 242/2/4
f 243/2/4 244/2/4 246/2/4
f 244/1/4 245/1/4 246/1/4
f 246/1/4 245/1/4 247/1/4
f 243/2/4 246/2/4 248/2/4
f 246/2/4 247/2/4 248/2/4
f 248/2/4 247/2/4 249/2/4
f 249/2/4 247/2/4 250/2/4
f 251/2/4 252/2/4 254/2/4
f 252/1/4 253/1/4 255/1/4
f 254/2/4 252/2/4 255/2/4
f 255/1/4 253/1/4 256/1/4
f 257/2/4 258/2/4 260/2/4
f 258/1/4 259/1/4 261/1/4
f 260/2/4 258/2/4 261/2/4
f 261/1/4 259/1/4 262/1/4
f 263/2/4 264/2/4 266/2/4
f 264/2/4 265/2/4 266/2/4
f 266/2/4 265/2/4 267/2/4
f 268/2/4 269/2/4 270/2/4
f 270/2/4 269/2/4 271/2/4
f 268/2/4 270/2/4 272/2/4
f 270/1/4 271/1/4 273/1/4
f 272/2/4 270/2/4 273/2/4
f 273/1/4 271/1/4 274/1/4
f 278/4/5 276/4/5 275/4/5
f 279/4/5 276/4/5 278/4/5
f 282/4/5 278/4/5 277/4/5
f 283/2/5 279/2/5 278/2/5
f 283/4/5 278/4/5 282/4/5
f 284/4/5 280/4/5 279/4/5
f 284/2/5 279/2/5 283/2/5
f 285/4/5 280/4/5 284/4/5
f 288/4/5 282/4/5 281/4/5
f 289/2/5 283/2/5 282/2/5
f 289/2/5 284/2/5 283/2/5
f 289/4/5 282/4/5 288/4/5
f 289/2/5 285/2/5 284/2/5
f 290/4/5 286/4/5 285/4/5
f 290/2/5 285/2/5 289/2/5
f 291/4/5 286/4/5 290/4/5
f 294/4/5 288/4/5 287/4/5
f 295/2/5 289/2/5 288/2/5
f 295/2/5 290/2/5 289/2/5
f 295/4/5 288/4/5 294/4/5
f 295/2/5 291/2/5 290/2/5
f 296/4/5 292/4/5 291/4/5
f 296/2/5 291/2/5 295/2/5
f 297/4/5 292/4/5 296/4/5
f 299/4/5 294/4/5 293/4/5
f 300/2/5 295/2/5 294/2/5
f 300/4/5 294/4/5 299/4/5
f 300/2/5 296/2/5 295/2/5
f 300/2/5 297/2/5 296/2/5
f 301/2/5 297/2/5 300/2/5
f 302/4/5 298/4/5 297/4/5
f 302/2/5 297/2/5 301/2/5
f 303/4/5 298/4/5 302/4/5
f 304/2/5 303/2/5 302/2/5
f 304/2/5 302/2/5 301/2/5
f 305/2/5 303/2/5 304/2/5
f 306/2/5 303/2/5 305/2/5
f 307/2/5 303/2/5 306/2/5
f 308/2/5 306/2/5 305/2/5
f 309/2/5 306/2/5 308/2/5
f 310/2/5 306/2/5 309/2/5
f 311/2/5 306/2/5 310/2/5
f 312/2/5 310/2/5 309/2/5
f 313/2/5 310/2/5 312/2/5
f 314/2/5 310/2/5 313/2/5
f 315/2/5 310/2/5 314/2/5
f 316/2/5 314/2/5 313/2/5
f 317/2/5 314/2/5 316/2/5
f 318/2/5 314/2/5 317/2/5
f 319/2/5 314/2/5 318/2/5
f 320/2/5 318/2/5 317/2/5
f 321/2/5 318/2/5 320/2/5
f 322/2/5 318/2/5 321/2/5
f 323/2/5 318/2/5 322/2/5
f 324/2/5 322/2/5 321/2/5
f 325/2/5 322/2/5 324/2/5
f 326/2/5 324/2/5 321/2/5
f 327/2/5 324/2/5 326/2/5
f 328/2/5 324/2/5 327/2/5
f 329/2/5 324/2/5 328/2/5
f 330/2/5 328/2/5 327/2/5
f 331/2/5 328/2/5 330/2/5
f 332/2/5 328/2/5 331/2/5
f 333/2/5 328/2/5 332/2/5
f 334/2/5 332/2/5 331/2/5
f 335/2/5 332/2/5 334/2/5
f 336/4/6 337/4/6 339/4/6
f 339/4/6 337/4/6 340/4/6
f 338/4/6 339/4/6 343/4/6
f 340/4/6 341/4/6 343/4/6
f 339/4/6 340/4/6 343/4/6
f 343/4/6 341/4/6 344/4/6
f 344/4/6 341/4/6 345/4/6
f 345/4/6 341/4/6 346/4/6
f 342/4/6 343/4/6 349/4/6
f 343/4/6 344/4/6 349/4/6
f 349/4/6 344/4/6 350/4/6
f 344/1/6 345/1/6 351/1/6
f 350/4/6 344/4/6 351/4/6
f 346/4/6 347/4/6 352/4/6
f 351/1/6 345/1/6 352/1/6
f 345/4/6 346/4/6 352/4/6
f 352/4/6 347/4/6 353/4/6
f 353/4/6 347/4/6 354/4/6
f 348/4/6 349/4/6 357/4/6
f 349/4/6 350/4/6 357/4/6
f 357/4/6 350/4/6 358/4/6
f 350/1/6 351/1/6 359/1/6
f 358/4/6 350/4/6 359/4/6
f 351/1/6 352/1/6 359/1/6
f 352/1/6 353/1/6 359/1/6
f 359/1/6 353/1/6 360/1/6
f 360/1/6 353/1/6 361/1/6
f 354/4/6 355/4/6 362/4/6
f 361/1/6 353/1/6 362/1/6
f 353/4/6 354/4/6 362/4/6
f 362/4/6 355/4/6 363/4/6
f 363/4/6 355/4/6 364/4/6
f 357/4/6 358/4/6 366/4/6
f 356/4/6 357/4/6 366/4/6
f 366/4/6 358/4/6 367/4/6
f 359/1/6 360/1/6 368/1/6
f 367/4/6 358/4/6 368/4/6
f 358/1/6 359/1/6 368/1/6
f 368/1/6 360/1/6 369/1/6
f 360/2/6 361/2/6 370/2/6
f 369/1/6 360/1/6 370/1/6
f 361/1/6 362/1/6 371/1/6
f 370/2/6 361/2/6 371/2/6
f 362/1/6 363/1/6 371/1/6
f 371/1/6 363/1/6 372/1/6
f 364/4/6 365/4/6 373/4/6
f 372/1/6 363/1/6 373/1/6
f 363/4/6 364/4/6 373/4/6
f 373/4/6 365/4/6 374/4/6
f 368/1/6 369/1/6 375/1/6
f 367/1/6 368/1/6 375/1/6
f 375/1/6 369/1/6 376/1/6
f 376/1/6 369/1/6 377/1/6
f 371/2/6 372/2/6 378/2/6
f 377/1/6 369/1/6 378/1/6
f 370/2/6 371/2/6 378/2/6
f 369/2/6 370/2/6 378/2/6
f 373/1/6 374/1/6 379/1/6
f 378/2/6 372/2/6 379/2/6
f 372/1/6 373/1/6 379/1/6
f 379/1/6 374/1/6 380/1/6
f 374/4/6 365/4/6 381/4/6
f 380/1/6 374/1/6 381/1/6
f 381/4/6 365/4/6 382/4/6
f 382/4/6 365/4/6 383/4/6
f 376/1/6 377/1/6 384/1/6
f 379/2/6 380/2/6 385/2/6
f 384/1/6 377/1/6 385/1/6
f 377/2/6 378/2/6 385/2/6
f 378/2/6 379/2/6 385/2/6
f 385/2/6 380/2/6 386/2/6
f 386/2/6 380/2/6 387/2/6
f 380/1/6 381/1/6 388/1/6
f 387/2/6 380/2/6 388/2/6
f 381/1/6 382/1/6 388/1/6
f 388/1/6 382/1/6 389/1/6
f 385/2/6 386/2/6 390/2/6
f 384/2/6 385/2/6 390/2/6
f 390/2/6 386/2/6 391/2/6
f 391/2/6 386/2/6 392/2/6
f 386/1/6 387/1/6 393/1/6
f 392/2/6 386/2/6 393/2/6
f 388/2/6 389/2/6 394/2/6
f 393/1/6 387/1/6 394/1/6
f 387/2/6 388/2/6 394/2/6
f 394/2/6 389/2/6 395/2/6
f 389/1/6 382/1/6 396/1/6
f 395/2/6 389/2/6 396/2/6
f 396/1/6 382/1/6 397/1/6
f 391/2/6 392/2/6 398/2/6
f 394/1/6 395/1/6 399/1/6
f 398/2/6 392/2/6 399/2/6
f 392/1/6 393/1/6 399/1/6
f 393/1/6 394/1/6 399/1/6
f 395/2/6 396/2/6 400/2/6
f 399/1/6 395/1/6 400/1/6
f 400/2/6 396/2/6 401/2/6
f 401/2/6 396/2/6 402/2/6
f 399/1/6 400/1/6 403/1/6
f 400/1/6 401/1/6 403/1/6
f 403/1/6 401/1/6 404/1/6
f 404/1/6 401/1/6 405/1/6
f 405/1/6 401/1/6 406/1/6
f 406/1/6 401/1/6 407/1/6
f 407/1/6 401/1/6 408/1/6
f 404/1/6 405/1/6 409/1/6
f 405/2/6 406/2/6 410/2/6
f 409/1/6 405/1/6 410/1/6
f 406/1/6 407/1/6 411/1/6
f 410/2/6 406/2/6 411/2/6
f 411/1/6 407/1/6 412/1/6
f 412/1/6 407/1/6 413/1/6
f 413/1/6 407/1/6 414/1/6
f 410/2/6 411/2/6 415/2/6
f 411/2/6 412/2/6 415/2/6
f 415/2/6 412/2/6 416/2/6
f 412/1/6 413/1/6 417/1/6
f 416/2/6 412/2/6 417/2/6
f 417/1/6 413/1/6 418/1/6
f 415/1/6 416/1/6 419/1/6
f 419/1/6 416/1/6 420/1/6
f 416/2/6 417/2/6 421/2/6
f 420/1/6 416/1/6 421/1/6
f 417/2/6 418/2/6 421/2/6
f 421/2/6 418/2/6 422/2/6
f 422/2/6 418/2/6 423/2/6
f 415/1/6 419/1/6 424/1/6
f 419/2/6 420/2/6 425/2/6
f 424/1/6 419/1/6 425/1/6
f 425/2/6 420/2/6 426/2/6
f 420/1/6 421/1/6 427/1/6
f 426/2/6 420/2/6 427/2/6
f 421/1/6 422/1/6 427/1/6
f 427/1/6 422/1/6 428/1/6
f 428/1/6 422/1/6 429/1/6
f 426/1/6 427/1/6 430/1/6
f 430/1/6 427/1/6 431/1/6
f 427/2/6 428/2/6 432/2/6
f 431/1/6 427/1/6 432/1/6
f 432/2/6 428/2/6 433/2/6
f 433/2/6 428/2/6 434/2/6
f 431/2/6 432/2/6 435/2/6
f 432/1/6 433/1/6 436/1/6
f 435/2/6 432/2/6 436/2/6
f 436/1/6 433/1/6 437/1/6
