# MagicaVoxel @ Ephtracy

# material
mtllib BrokenLog2.mtl
usemtl palette

# normals
vn -1 0 0
vn 1 0 0
vn 0 0 1
vn 0 0 -1
vn 0 -1 0
vn 0 1 0

# texcoords
vt 0.177734 0.5
vt 0.205078 0.5
vt 0.306641 0.5
vt 0.369141 0.5
vt 0.373047 0.5

# verts
v -18.5 0 -7.5
v -18.5 0 -9.5
v -18.5 11 -7.5
v -18.5 11 -9.5
v -17.5 0 -9.5
v -17.5 0 -11.5
v -17.5 11 -9.5
v -17.5 11 -11.5
v -16.5 0 -11.5
v -16.5 0 -12.5
v -16.5 11 -11.5
v -16.5 11 -12.5
v -15.5 0 -12.5
v -15.5 0 -13.5
v -15.5 11 -12.5
v -15.5 11 -13.5
v -14.5 0 -13.5
v -14.5 0 -14.5
v -14.5 11 -13.5
v -14.5 11 -14.5
v -13.5 0 -14.5
v -13.5 0 -15.5
v -13.5 11 -14.5
v -13.5 11 -15.5
v -12.5 0 -6.5
v -12.5 0 -7.5
v -12.5 0 -15.5
v -12.5 0 -16.5
v -12.5 1 -6.5
v -12.5 1 -7.5
v -12.5 11 -6.5
v -12.5 11 -7.5
v -12.5 11 -15.5
v -12.5 11 -16.5
v -11.5 0 -2.5
v -11.5 0 -6.5
v -11.5 0 -16.5
v -11.5 0 -17.5
v -11.5 1 -4.5
v -11.5 1 -6.5
v -11.5 11 -2.5
v -11.5 11 -4.5
v -11.5 11 -6.5
v -11.5 11 -16.5
v -11.5 11 -17.5
v -9.5 0 -0.5
v -9.5 0 -2.5
v -9.5 0 -17.5
v -9.5 0 -18.5
v -9.5 1 -0.5
v -9.5 1 -2.5
v -9.5 11 -0.5
v -9.5 11 -2.5
v -9.5 11 -17.5
v -9.5 11 -18.5
v -7.5 0 0.5
v -7.5 0 -0.5
v -7.5 0 -18.5
v -7.5 0 -19.5
v -7.5 1 0.5
v -7.5 1 -0.5
v -7.5 11 0.5
v -7.5 11 -0.5
v -7.5 11 -18.5
v -7.5 11 -19.5
v -6.5 0 1.5
v -6.5 0 0.5
v -6.5 1 0.5
v -6.5 11 1.5
v -6.5 11 0.5
v -4.5 0 -19.5
v -4.5 0 -20.5
v -4.5 11 -19.5
v -4.5 11 -20.5
v -5.5 0 1.5
v -5.5 0 0.5
v -5.5 1 0.5
v -5.5 11 1.5
v -5.5 11 0.5
v -4.5 0 0.5
v -4.5 0 -2.5
v -4.5 1 0.5
v -4.5 1 -2.5
v -4.5 11 0.5
v -4.5 11 -2.5
v -3.5 0 -2.5
v -3.5 0 -6.5
v -3.5 1 -3.5
v -3.5 1 -4.5
v -3.5 1 -6.5
v -3.5 11 -2.5
v -3.5 11 -3.5
v -3.5 11 -4.5
v -3.5 11 -6.5
v -2.5 0 -6.5
v -2.5 0 -10.5
v -2.5 1 -6.5
v -2.5 1 -7.5
v -2.5 1 -8.5
v -2.5 1 -10.5
v -2.5 11 -6.5
v -2.5 11 -7.5
v -2.5 11 -8.5
v -2.5 11 -10.5
v -1.5 0 -10.5
v -1.5 0 -14.5
v -1.5 1 -12.5
v -1.5 1 -14.5
v -1.5 11 -10.5
v -1.5 11 -12.5
v -1.5 11 -14.5
v -0.5 0 -14.5
v -0.5 0 -16.5
v -0.5 1 -16.5
v -0.5 11 -14.5
v -0.5 11 -16.5
v 0.5 0 -16.5
v 0.5 0 -17.5
v 0.5 1 -16.5
v 0.5 1 -17.5
v 0.5 11 -16.5
v 0.5 11 -17.5
v 1.5 0 -17.5
v 1.5 0 -19.5
v 1.5 1 -17.5
v 1.5 1 -18.5
v 1.5 1 -19.5
v 1.5 11 -17.5
v 1.5 11 -18.5
v 1.5 11 -19.5
v 2.5 0 -19.5
v 2.5 0 -20.5
v 2.5 11 -19.5
v 2.5 11 -20.5
v -6.5 0 1.5
v -6.5 11 1.5
v -5.5 0 1.5
v -5.5 11 1.5
v -7.5 0 0.5
v -7.5 1 0.5
v -7.5 11 0.5
v -6.5 0 0.5
v -6.5 1 0.5
v -6.5 11 0.5
v -5.5 0 0.5
v -5.5 1 0.5
v -5.5 11 0.5
v -4.5 0 0.5
v -4.5 1 0.5
v -4.5 11 0.5
v -9.5 0 -0.5
v -9.5 1 -0.5
v -9.5 11 -0.5
v -8.5 1 -0.5
v -8.5 11 -0.5
v -7.5 0 -0.5
v -7.5 1 -0.5
v -7.5 11 -0.5
v -11.5 0 -2.5
v -11.5 11 -2.5
v -9.5 0 -2.5
v -9.5 1 -2.5
v -9.5 11 -2.5
v -4.5 0 -2.5
v -4.5 1 -2.5
v -4.5 11 -2.5
v -3.5 0 -2.5
v -3.5 11 -2.5
v -12.5 0 -6.5
v -12.5 1 -6.5
v -12.5 11 -6.5
v -11.5 0 -6.5
v -11.5 1 -6.5
v -11.5 11 -6.5
v -3.5 0 -6.5
v -3.5 1 -6.5
v -3.5 11 -6.5
v -2.5 0 -6.5
v -2.5 1 -6.5
v -2.5 11 -6.5
v -18.5 0 -7.5
v -18.5 11 -7.5
v -17.5 0 -7.5
v -17.5 1 -7.5
v -17.5 7 -7.5
v -17.5 10 -7.5
v -16.5 1 -7.5
v -16.5 7 -7.5
v -16.5 10 -7.5
v -16.5 11 -7.5
v -14.5 1 -7.5
v -14.5 11 -7.5
v -12.5 0 -7.5
v -12.5 1 -7.5
v -12.5 11 -7.5
v -2.5 0 -10.5
v -2.5 1 -10.5
v -2.5 11 -10.5
v -1.5 0 -10.5
v -1.5 11 -10.5
v -1.5 0 -14.5
v -1.5 1 -14.5
v -1.5 11 -14.5
v -0.5 0 -14.5
v -0.5 11 -14.5
v -0.5 0 -16.5
v -0.5 1 -16.5
v -0.5 11 -16.5
v 0.5 0 -16.5
v 0.5 1 -16.5
v 0.5 11 -16.5
v 0.5 0 -17.5
v 0.5 1 -17.5
v 0.5 11 -17.5
v 1.5 0 -17.5
v 1.5 1 -17.5
v 1.5 11 -17.5
v 1.5 0 -19.5
v 1.5 1 -19.5
v 1.5 11 -19.5
v 2.5 0 -19.5
v 2.5 11 -19.5
v -18.5 0 -9.5
v -18.5 11 -9.5
v -17.5 0 -9.5
v -17.5 11 -9.5
v -17.5 0 -11.5
v -17.5 11 -11.5
v -16.5 0 -11.5
v -16.5 11 -11.5
v -16.5 0 -12.5
v -16.5 11 -12.5
v -15.5 0 -12.5
v -15.5 11 -12.5
v -15.5 0 -13.5
v -15.5 11 -13.5
v -14.5 0 -13.5
v -14.5 11 -13.5
v -14.5 0 -14.5
v -14.5 11 -14.5
v -13.5 0 -14.5
v -13.5 11 -14.5
v -13.5 0 -15.5
v -13.5 11 -15.5
v -12.5 0 -15.5
v -12.5 11 -15.5
v -12.5 0 -16.5
v -12.5 11 -16.5
v -11.5 0 -16.5
v -11.5 11 -16.5
v -11.5 0 -17.5
v -11.5 11 -17.5
v -9.5 0 -17.5
v -9.5 11 -17.5
v -9.5 0 -18.5
v -9.5 11 -18.5
v -7.5 0 -18.5
v -7.5 11 -18.5
v -7.5 0 -19.5
v -7.5 11 -19.5
v -4.5 0 -19.5
v -4.5 11 -19.5
v -4.5 0 -20.5
v -4.5 11 -20.5
v 2.5 0 -20.5
v 2.5 11 -20.5
v -6.5 0 1.5
v -5.5 0 1.5
v -7.5 0 0.5
v -6.5 0 0.5
v -5.5 0 0.5
v -4.5 0 0.5
v -9.5 0 -0.5
v -7.5 0 -0.5
v -11.5 0 -2.5
v -9.5 0 -2.5
v -4.5 0 -2.5
v -3.5 0 -2.5
v -12.5 0 -6.5
v -11.5 0 -6.5
v -3.5 0 -6.5
v -2.5 0 -6.5
v -18.5 0 -7.5
v -17.5 0 -7.5
v -12.5 0 -7.5
v -18.5 0 -9.5
v -17.5 0 -9.5
v -16.5 0 -9.5
v -2.5 0 -10.5
v -1.5 0 -10.5
v -17.5 0 -11.5
v -16.5 0 -11.5
v -15.5 0 -11.5
v -16.5 0 -12.5
v -15.5 0 -12.5
v -14.5 0 -12.5
v -15.5 0 -13.5
v -14.5 0 -13.5
v -13.5 0 -13.5
v -14.5 0 -14.5
v -13.5 0 -14.5
v -12.5 0 -14.5
v -1.5 0 -14.5
v -0.5 0 -14.5
v -13.5 0 -15.5
v -12.5 0 -15.5
v -11.5 0 -15.5
v -12.5 0 -16.5
v -11.5 0 -16.5
v -9.5 0 -16.5
v -0.5 0 -16.5
v 0.5 0 -16.5
v -11.5 0 -17.5
v -9.5 0 -17.5
v -7.5 0 -17.5
v 0.5 0 -17.5
v 1.5 0 -17.5
v -9.5 0 -18.5
v -7.5 0 -18.5
v -4.5 0 -18.5
v -7.5 0 -19.5
v -4.5 0 -19.5
v 1.5 0 -19.5
v 2.5 0 -19.5
v -4.5 0 -20.5
v 2.5 0 -20.5
v -6.5 11 1.5
v -5.5 11 1.5
v -7.5 11 0.5
v -6.5 11 0.5
v -5.5 11 0.5
v -4.5 11 0.5
v -9.5 11 -0.5
v -8.5 11 -0.5
v -7.5 11 -0.5
v -11.5 11 -2.5
v -9.5 11 -2.5
v -4.5 11 -2.5
v -3.5 11 -2.5
v -8.5 11 -3.5
v -7.5 11 -3.5
v -6.5 11 -3.5
v -5.5 11 -3.5
v -4.5 11 -3.5
v -3.5 11 -3.5
v -11.5 11 -4.5
v -10.5 11 -4.5
v -9.5 11 -4.5
v -8.5 11 -4.5
v -4.5 11 -4.5
v -3.5 11 -4.5
v -7.5 11 -5.5
v -6.5 11 -5.5
v -5.5 11 -5.5
v -4.5 11 -5.5
v -12.5 11 -6.5
v -11.5 11 -6.5
v -10.5 11 -6.5
v -9.5 11 -6.5
v -8.5 11 -6.5
v -7.5 11 -6.5
v -5.5 11 -6.5
v -4.5 11 -6.5
v -3.5 11 -6.5
v -2.5 11 -6.5
v -18.5 11 -7.5
v -16.5 11 -7.5
v -14.5 11 -7.5
v -12.5 11 -7.5
v -7.5 11 -7.5
v -6.5 11 -7.5
v -4.5 11 -7.5
v -2.5 11 -7.5
v -14.5 11 -8.5
v -13.5 11 -8.5
v -12.5 11 -8.5
v -11.5 11 -8.5
v -9.5 11 -8.5
v -8.5 11 -8.5
v -6.5 11 -8.5
v -5.5 11 -8.5
v -4.5 11 -8.5
v -2.5 11 -8.5
v -18.5 11 -9.5
v -17.5 11 -9.5
v -16.5 11 -9.5
v -15.5 11 -9.5
v -8.5 11 -9.5
v -7.5 11 -9.5
v -5.5 11 -9.5
v -3.5 11 -9.5
v -15.5 11 -10.5
v -14.5 11 -10.5
v -13.5 11 -10.5
v -12.5 11 -10.5
v -11.5 11 -10.5
v -10.5 11 -10.5
v -7.5 11 -10.5
v -5.5 11 -10.5
v -3.5 11 -10.5
v -2.5 11 -10.5
v -1.5 11 -10.5
v -17.5 11 -11.5
v -16.5 11 -11.5
v -12.5 11 -11.5
v -11.5 11 -11.5
v -10.5 11 -11.5
v -8.5 11 -11.5
v -5.5 11 -11.5
v -3.5 11 -11.5
v -16.5 11 -12.5
v -15.5 11 -12.5
v -14.5 11 -12.5
v -13.5 11 -12.5
v -11.5 11 -12.5
v -10.5 11 -12.5
v -8.5 11 -12.5
v -7.5 11 -12.5
v -3.5 11 -12.5
v -1.5 11 -12.5
v -15.5 11 -13.5
v -14.5 11 -13.5
v -13.5 11 -13.5
v -12.5 11 -13.5
v -10.5 11 -13.5
v -8.5 11 -13.5
v -7.5 11 -13.5
v -4.5 11 -13.5
v -14.5 11 -14.5
v -13.5 11 -14.5
v -12.5 11 -14.5
v -10.5 11 -14.5
v -8.5 11 -14.5
v -6.5 11 -14.5
v -4.5 11 -14.5
v -1.5 11 -14.5
v -0.5 11 -14.5
v -13.5 11 -15.5
v -12.5 11 -15.5
v -10.5 11 -15.5
v -9.5 11 -15.5
v -6.5 11 -15.5
v -4.5 11 -15.5
v -12.5 11 -16.5
v -11.5 11 -16.5
v -9.5 11 -16.5
v -7.5 11 -16.5
v -4.5 11 -16.5
v -0.5 11 -16.5
v 0.5 11 -16.5
v -11.5 11 -17.5
v -9.5 11 -17.5
v -7.5 11 -17.5
v -4.5 11 -17.5
v 0.5 11 -17.5
v 1.5 11 -17.5
v -9.5 11 -18.5
v -7.5 11 -18.5
v -4.5 11 -18.5
v 1.5 11 -18.5
v -7.5 11 -19.5
v -4.5 11 -19.5
v 1.5 11 -19.5
v 2.5 11 -19.5
v -4.5 11 -20.5
v 2.5 11 -20.5

# faces
f 3/5/1 2/5/1 1/5/1
f 4/5/1 2/5/1 3/5/1
f 7/5/1 6/5/1 5/5/1
f 8/5/1 6/5/1 7/5/1
f 11/5/1 10/5/1 9/5/1
f 12/5/1 10/5/1 11/5/1
f 15/5/1 14/5/1 13/5/1
f 16/5/1 14/5/1 15/5/1
f 19/5/1 18/5/1 17/5/1
f 20/5/1 18/5/1 19/5/1
f 23/5/1 22/5/1 21/5/1
f 24/5/1 22/5/1 23/5/1
f 29/2/1 26/2/1 25/2/1
f 30/2/1 26/2/1 29/2/1
f 31/1/1 30/1/1 29/1/1
f 32/1/1 30/1/1 31/1/1
f 33/5/1 28/5/1 27/5/1
f 34/5/1 28/5/1 33/5/1
f 39/2/1 36/2/1 35/2/1
f 40/2/1 36/2/1 39/2/1
f 41/2/1 39/2/1 35/2/1
f 42/1/1 40/1/1 39/1/1
f 42/2/1 39/2/1 41/2/1
f 43/1/1 40/1/1 42/1/1
f 44/5/1 38/5/1 37/5/1
f 45/5/1 38/5/1 44/5/1
f 50/2/1 47/2/1 46/2/1
f 51/2/1 47/2/1 50/2/1
f 52/1/1 51/1/1 50/1/1
f 53/1/1 51/1/1 52/1/1
f 54/5/1 49/5/1 48/5/1
f 55/5/1 49/5/1 54/5/1
f 60/2/1 57/2/1 56/2/1
f 61/2/1 57/2/1 60/2/1
f 62/1/1 61/1/1 60/1/1
f 63/1/1 61/1/1 62/1/1
f 64/5/1 59/5/1 58/5/1
f 65/5/1 59/5/1 64/5/1
f 68/2/1 67/2/1 66/2/1
f 69/2/1 68/2/1 66/2/1
f 70/2/1 68/2/1 69/2/1
f 73/5/1 72/5/1 71/5/1
f 74/5/1 72/5/1 73/5/1
f 75/2/2 76/2/2 77/2/2
f 75/2/2 77/2/2 78/2/2
f 78/2/2 77/2/2 79/2/2
f 80/2/2 81/2/2 82/2/2
f 82/2/2 81/2/2 83/2/2
f 82/1/2 83/1/2 84/1/2
f 84/1/2 83/1/2 85/1/2
f 86/2/2 87/2/2 88/2/2
f 88/2/2 87/2/2 89/2/2
f 89/2/2 87/2/2 90/2/2
f 86/2/2 88/2/2 91/2/2
f 88/1/2 89/1/2 92/1/2
f 91/2/2 88/2/2 92/2/2
f 89/2/2 90/2/2 93/2/2
f 92/1/2 89/1/2 93/1/2
f 93/2/2 90/2/2 94/2/2
f 95/2/2 96/2/2 97/2/2
f 97/2/2 96/2/2 98/2/2
f 98/2/2 96/2/2 99/2/2
f 99/2/2 96/2/2 100/2/2
f 97/1/2 98/1/2 101/1/2
f 98/2/2 99/2/2 102/2/2
f 101/1/2 98/1/2 102/1/2
f 99/1/2 100/1/2 103/1/2
f 102/2/2 99/2/2 103/2/2
f 103/1/2 100/1/2 104/1/2
f 105/2/2 106/2/2 107/2/2
f 107/2/2 106/2/2 108/2/2
f 105/2/2 107/2/2 109/2/2
f 107/1/2 108/1/2 110/1/2
f 109/2/2 107/2/2 110/2/2
f 110/1/2 108/1/2 111/1/2
f 112/2/2 113/2/2 114/2/2
f 112/2/2 114/2/2 115/2/2
f 115/2/2 114/2/2 116/2/2
f 117/2/2 118/2/2 119/2/2
f 119/2/2 118/2/2 120/2/2
f 119/1/2 120/1/2 121/1/2
f 121/1/2 120/1/2 122/1/2
f 123/2/2 124/2/2 125/2/2
f 125/2/2 124/2/2 126/2/2
f 126/2/2 124/2/2 127/2/2
f 125/1/2 126/1/2 128/1/2
f 126/5/2 127/5/2 129/5/2
f 128/1/2 126/1/2 129/1/2
f 129/5/2 127/5/2 130/5/2
f 131/5/2 132/5/2 133/5/2
f 133/5/2 132/5/2 134/5/2
f 137/2/3 136/2/3 135/2/3
f 138/2/3 136/2/3 137/2/3
f 142/2/3 140/2/3 139/2/3
f 143/1/3 141/1/3 140/1/3
f 143/2/3 140/2/3 142/2/3
f 144/1/3 141/1/3 143/1/3
f 148/2/3 146/2/3 145/2/3
f 149/1/3 147/1/3 146/1/3
f 149/2/3 146/2/3 148/2/3
f 150/1/3 147/1/3 149/1/3
f 154/2/3 152/2/3 151/2/3
f 154/1/3 153/1/3 152/1/3
f 155/1/3 153/1/3 154/1/3
f 156/2/3 154/2/3 151/2/3
f 156/2/3 155/2/3 154/2/3
f 157/2/3 155/2/3 156/2/3
f 158/2/3 155/2/3 157/2/3
f 161/2/3 160/2/3 159/2/3
f 162/2/3 160/2/3 161/2/3
f 163/2/3 160/2/3 162/2/3
f 167/2/3 165/2/3 164/2/3
f 167/2/3 166/2/3 165/2/3
f 168/2/3 166/2/3 167/2/3
f 172/2/3 170/2/3 169/2/3
f 173/1/3 171/1/3 170/1/3
f 173/2/3 170/2/3 172/2/3
f 174/1/3 171/1/3 173/1/3
f 178/2/3 176/2/3 175/2/3
f 179/1/3 177/1/3 176/1/3
f 179/2/3 176/2/3 178/2/3
f 180/1/3 177/1/3 179/1/3
f 183/5/3 182/5/3 181/5/3
f 184/5/3 182/5/3 183/5/3
f 185/5/3 182/5/3 184/5/3
f 186/5/3 182/5/3 185/5/3
f 187/2/3 184/2/3 183/2/3
f 187/5/3 185/5/3 184/5/3
f 188/4/3 186/4/3 185/4/3
f 188/5/3 185/5/3 187/5/3
f 189/5/3 182/5/3 186/5/3
f 189/4/3 186/4/3 188/4/3
f 190/5/3 182/5/3 189/5/3
f 191/1/3 188/1/3 187/1/3
f 191/2/3 187/2/3 183/2/3
f 191/1/3 190/1/3 189/1/3
f 191/1/3 189/1/3 188/1/3
f 192/1/3 190/1/3 191/1/3
f 193/2/3 191/2/3 183/2/3
f 193/2/3 192/2/3 191/2/3
f 194/2/3 192/2/3 193/2/3
f 195/2/3 192/2/3 194/2/3
f 199/2/3 197/2/3 196/2/3
f 199/2/3 198/2/3 197/2/3
f 200/2/3 198/2/3 199/2/3
f 204/2/3 202/2/3 201/2/3
f 204/2/3 203/2/3 202/2/3
f 205/2/3 203/2/3 204/2/3
f 209/2/3 207/2/3 206/2/3
f 210/1/3 208/1/3 207/1/3
f 210/2/3 207/2/3 209/2/3
f 211/1/3 208/1/3 210/1/3
f 215/2/3 213/2/3 212/2/3
f 216/1/3 214/1/3 213/1/3
f 216/2/3 213/2/3 215/2/3
f 217/1/3 214/1/3 216/1/3
f 221/5/3 219/5/3 218/5/3
f 221/5/3 220/5/3 219/5/3
f 222/5/3 220/5/3 221/5/3
f 223/5/4 224/5/4 225/5/4
f 225/5/4 224/5/4 226/5/4
f 227/5/4 228/5/4 229/5/4
f 229/5/4 228/5/4 230/5/4
f 231/5/4 232/5/4 233/5/4
f 233/5/4 232/5/4 234/5/4
f 235/5/4 236/5/4 237/5/4
f 237/5/4 236/5/4 238/5/4
f 239/5/4 240/5/4 241/5/4
f 241/5/4 240/5/4 242/5/4
f 243/5/4 244/5/4 245/5/4
f 245/5/4 244/5/4 246/5/4
f 247/5/4 248/5/4 249/5/4
f 249/5/4 248/5/4 250/5/4
f 251/5/4 252/5/4 253/5/4
f 253/5/4 252/5/4 254/5/4
f 255/5/4 256/5/4 257/5/4
f 257/5/4 256/5/4 258/5/4
f 259/5/4 260/5/4 261/5/4
f 261/5/4 260/5/4 262/5/4
f 263/5/4 264/5/4 265/5/4
f 265/5/4 264/5/4 266/5/4
f 270/2/5 268/2/5 267/2/5
f 271/2/5 268/2/5 270/2/5
f 274/2/5 270/2/5 269/2/5
f 274/2/5 272/2/5 271/2/5
f 274/2/5 271/2/5 270/2/5
f 276/2/5 274/2/5 273/2/5
f 277/2/5 272/2/5 274/2/5
f 277/2/5 274/2/5 276/2/5
f 280/2/5 276/2/5 275/2/5
f 280/2/5 278/2/5 277/2/5
f 280/2/5 277/2/5 276/2/5
f 281/2/5 278/2/5 280/2/5
f 285/2/5 280/2/5 279/2/5
f 285/2/5 281/2/5 280/2/5
f 285/2/5 282/2/5 281/2/5
f 286/5/5 284/5/5 283/5/5
f 287/2/5 285/2/5 284/2/5
f 287/5/5 284/5/5 286/5/5
f 288/2/5 285/2/5 287/2/5
f 289/2/5 282/2/5 285/2/5
f 289/2/5 285/2/5 288/2/5
f 291/5/5 288/5/5 287/5/5
f 292/2/5 290/2/5 289/2/5
f 292/5/5 288/5/5 291/5/5
f 292/2/5 289/2/5 288/2/5
f 293/2/5 290/2/5 292/2/5
f 294/5/5 293/5/5 292/5/5
f 295/2/5 290/2/5 293/2/5
f 295/5/5 293/5/5 294/5/5
f 296/2/5 290/2/5 295/2/5
f 297/5/5 296/5/5 295/5/5
f 298/2/5 290/2/5 296/2/5
f 298/5/5 296/5/5 297/5/5
f 299/2/5 290/2/5 298/2/5
f 300/5/5 299/5/5 298/5/5
f 301/2/5 290/2/5 299/2/5
f 301/5/5 299/5/5 300/5/5
f 302/2/5 290/2/5 301/2/5
f 303/2/5 290/2/5 302/2/5
f 305/5/5 302/5/5 301/5/5
f 306/2/5 304/2/5 303/2/5
f 306/5/5 302/5/5 305/5/5
f 306/2/5 303/2/5 302/2/5
f 307/2/5 304/2/5 306/2/5
f 308/5/5 307/5/5 306/5/5
f 309/2/5 304/2/5 307/2/5
f 309/5/5 307/5/5 308/5/5
f 310/2/5 304/2/5 309/2/5
f 311/2/5 304/2/5 310/2/5
f 313/5/5 310/5/5 309/5/5
f 314/2/5 312/2/5 311/2/5
f 314/5/5 310/5/5 313/5/5
f 314/2/5 311/2/5 310/2/5
f 315/2/5 312/2/5 314/2/5
f 316/2/5 312/2/5 315/2/5
f 318/5/5 315/5/5 314/5/5
f 319/2/5 317/2/5 316/2/5
f 319/5/5 315/5/5 318/5/5
f 319/2/5 316/2/5 315/2/5
f 320/2/5 317/2/5 319/2/5
f 321/5/5 320/5/5 319/5/5
f 322/2/5 317/2/5 320/2/5
f 322/5/5 320/5/5 321/5/5
f 323/2/5 317/2/5 322/2/5
f 325/5/5 324/5/5 323/5/5
f 325/5/5 323/5/5 322/5/5
f 326/5/5 324/5/5 325/5/5
f 327/2/6 328/2/6 330/2/6
f 330/2/6 328/2/6 331/2/6
f 329/1/6 330/1/6 335/1/6
f 333/1/6 334/1/6 337/1/6
f 331/1/6 332/1/6 338/1/6
f 334/2/6 335/2/6 340/2/6
f 337/1/6 334/1/6 340/1/6
f 335/1/6 330/1/6 341/1/6
f 340/2/6 335/2/6 341/2/6
f 330/2/6 331/2/6 342/2/6
f 341/1/6 330/1/6 342/1/6
f 331/1/6 338/1/6 343/1/6
f 342/2/6 331/2/6 343/2/6
f 338/2/6 339/2/6 344/2/6
f 343/1/6 338/1/6 344/1/6
f 344/2/6 339/2/6 345/2/6
f 336/2/6 337/2/6 346/2/6
f 346/2/6 337/2/6 347/2/6
f 340/1/6 341/1/6 348/1/6
f 347/2/6 337/2/6 348/2/6
f 337/1/6 340/1/6 348/1/6
f 348/1/6 341/1/6 349/1/6
f 343/2/6 344/2/6 350/2/6
f 344/1/6 345/1/6 350/1/6
f 350/1/6 345/1/6 351/1/6
f 341/2/6 342/2/6 352/2/6
f 349/1/6 341/1/6 352/1/6
f 342/1/6 343/1/6 353/1/6
f 352/2/6 342/2/6 353/2/6
f 350/2/6 351/2/6 354/2/6
f 353/1/6 343/1/6 354/1/6
f 343/2/6 350/2/6 354/2/6
f 354/2/6 351/2/6 355/2/6
f 346/1/6 347/1/6 357/1/6
f 348/2/6 349/2/6 358/2/6
f 347/2/6 348/2/6 358/2/6
f 357/1/6 347/1/6 358/1/6
f 358/2/6 349/2/6 359/2/6
f 349/1/6 352/1/6 360/1/6
f 359/2/6 349/2/6 360/2/6
f 352/1/6 353/1/6 360/1/6
f 360/1/6 353/1/6 361/1/6
f 353/2/6 354/2/6 362/2/6
f 354/1/6 355/1/6 362/1/6
f 355/2/6 351/2/6 363/2/6
f 362/1/6 355/1/6 363/1/6
f 363/2/6 351/2/6 364/2/6
f 358/1/6 359/1/6 369/1/6
f 357/1/6 358/1/6 369/1/6
f 356/1/6 357/1/6 369/1/6
f 361/1/6 353/1/6 370/1/6
f 360/2/6 361/2/6 370/2/6
f 359/2/6 360/2/6 370/2/6
f 353/2/6 362/2/6 371/2/6
f 370/1/6 353/1/6 371/1/6
f 362/2/6 363/2/6 371/2/6
f 363/1/6 364/1/6 372/1/6
f 371/2/6 363/2/6 372/2/6
f 364/1/6 365/1/6 372/1/6
f 372/1/6 365/1/6 373/1/6
f 367/1/6 368/1/6 374/1/6
f 368/2/6 369/2/6 374/2/6
f 374/2/6 369/2/6 375/2/6
f 369/1/6 359/1/6 376/1/6
f 375/2/6 369/2/6 376/2/6
f 376/1/6 359/1/6 377/1/6
f 359/2/6 370/2/6 378/2/6
f 377/1/6 359/1/6 378/1/6
f 370/2/6 371/2/6 378/2/6
f 378/2/6 371/2/6 379/2/6
f 371/1/6 372/1/6 380/1/6
f 379/2/6 371/2/6 380/2/6
f 380/1/6 372/1/6 381/1/6
f 372/2/6 373/2/6 382/2/6
f 381/1/6 372/1/6 382/1/6
f 382/2/6 373/2/6 383/2/6
f 366/5/6 367/5/6 384/5/6
f 384/5/6 367/5/6 385/5/6
f 374/1/6 375/1/6 386/1/6
f 385/5/6 367/5/6 386/5/6
f 367/1/6 374/1/6 386/1/6
f 386/1/6 375/1/6 387/1/6
f 380/2/6 381/2/6 388/2/6
f 378/1/6 379/1/6 388/1/6
f 377/1/6 378/1/6 388/1/6
f 379/2/6 380/2/6 388/2/6
f 388/2/6 381/2/6 389/2/6
f 382/1/6 383/1/6 390/1/6
f 389/2/6 381/2/6 390/2/6
f 381/1/6 382/1/6 390/1/6
f 390/1/6 383/1/6 391/1/6
f 387/1/6 375/1/6 392/1/6
f 386/5/6 387/5/6 392/5/6
f 385/5/6 386/5/6 392/5/6
f 392/1/6 375/1/6 393/1/6
f 376/2/6 377/2/6 394/2/6
f 393/1/6 375/1/6 394/1/6
f 375/2/6 376/2/6 394/2/6
f 394/2/6 377/2/6 395/2/6
f 377/1/6 388/1/6 396/1/6
f 395/2/6 377/2/6 396/2/6
f 388/1/6 389/1/6 396/1/6
f 396/1/6 389/1/6 397/1/6
f 390/2/6 391/2/6 398/2/6
f 397/1/6 389/1/6 398/1/6
f 389/2/6 390/2/6 398/2/6
f 398/2/6 391/2/6 399/2/6
f 391/1/6 383/1/6 400/1/6
f 399/2/6 391/2/6 400/2/6
f 400/1/6 383/1/6 401/1/6
f 392/5/6 393/5/6 403/5/6
f 385/5/6 392/5/6 403/5/6
f 403/5/6 393/5/6 404/5/6
f 396/2/6 397/2/6 405/2/6
f 395/2/6 396/2/6 405/2/6
f 394/1/6 395/1/6 405/1/6
f 393/1/6 394/1/6 405/1/6
f 405/2/6 397/2/6 406/2/6
f 397/1/6 398/1/6 407/1/6
f 406/2/6 397/2/6 407/2/6
f 398/1/6 399/1/6 407/1/6
f 407/1/6 399/1/6 408/1/6
f 400/2/6 401/2/6 409/2/6
f 408/1/6 399/1/6 409/1/6
f 401/2/6 402/2/6 409/2/6
f 399/2/6 400/2/6 409/2/6
f 409/2/6 402/2/6 410/2/6
f 404/5/6 393/5/6 411/5/6
f 411/5/6 393/5/6 412/5/6
f 405/1/6 406/1/6 413/1/6
f 412/5/6 393/5/6 413/5/6
f 393/1/6 405/1/6 413/1/6
f 413/1/6 406/1/6 414/1/6
f 407/2/6 408/2/6 415/2/6
f 414/1/6 406/1/6 415/1/6
f 406/2/6 407/2/6 415/2/6
f 415/2/6 408/2/6 416/2/6
f 409/1/6 410/1/6 417/1/6
f 416/2/6 408/2/6 417/2/6
f 408/1/6 409/1/6 417/1/6
f 417/1/6 410/1/6 418/1/6
f 410/2/6 402/2/6 419/2/6
f 418/1/6 410/1/6 419/1/6
f 419/2/6 402/2/6 420/2/6
f 413/5/6 414/5/6 421/5/6
f 412/5/6 413/5/6 421/5/6
f 421/5/6 414/5/6 422/5/6
f 415/1/6 416/1/6 423/1/6
f 422/5/6 414/5/6 423/5/6
f 414/1/6 415/1/6 423/1/6
f 423/1/6 416/1/6 424/1/6
f 417/2/6 418/2/6 425/2/6
f 424/1/6 416/1/6 425/1/6
f 416/2/6 417/2/6 425/2/6
f 425/2/6 418/2/6 426/2/6
f 419/1/6 420/1/6 427/1/6
f 426/2/6 418/2/6 427/2/6
f 418/1/6 419/1/6 427/1/6
f 427/1/6 420/1/6 428/1/6
f 423/5/6 424/5/6 429/5/6
f 422/5/6 423/5/6 429/5/6
f 429/5/6 424/5/6 430/5/6
f 425/1/6 426/1/6 431/1/6
f 430/5/6 424/5/6 431/5/6
f 424/1/6 425/1/6 431/1/6
f 431/1/6 426/1/6 432/1/6
f 427/2/6 428/2/6 433/2/6
f 432/1/6 426/1/6 433/1/6
f 426/2/6 427/2/6 433/2/6
f 433/2/6 428/2/6 434/2/6
f 428/1/6 420/1/6 435/1/6
f 434/2/6 428/2/6 435/2/6
f 435/1/6 420/1/6 436/1/6
f 431/5/6 432/5/6 438/5/6
f 430/5/6 431/5/6 438/5/6
f 438/5/6 432/5/6 439/5/6
f 433/1/6 434/1/6 440/1/6
f 439/5/6 432/5/6 440/5/6
f 432/1/6 433/1/6 440/1/6
f 440/1/6 434/1/6 441/1/6
f 435/2/6 436/2/6 442/2/6
f 441/1/6 434/1/6 442/1/6
f 436/2/6 437/2/6 442/2/6
f 434/2/6 435/2/6 442/2/6
f 442/2/6 437/2/6 443/2/6
f 440/5/6 441/5/6 444/5/6
f 439/5/6 440/5/6 444/5/6
f 444/5/6 441/5/6 445/5/6
f 442/1/6 443/1/6 446/1/6
f 445/5/6 441/5/6 446/5/6
f 441/1/6 442/1/6 446/1/6
f 446/1/6 443/1/6 447/1/6
f 443/2/6 437/2/6 448/2/6
f 447/1/6 443/1/6 448/1/6
f 448/2/6 437/2/6 449/2/6
f 446/5/6 447/5/6 451/5/6
f 445/5/6 446/5/6 451/5/6
f 451/5/6 447/5/6 452/5/6
f 449/1/6 450/1/6 453/1/6
f 452/5/6 447/5/6 453/5/6
f 448/1/6 449/1/6 453/1/6
f 447/1/6 448/1/6 453/1/6
f 453/1/6 450/1/6 454/1/6
f 454/1/6 450/1/6 455/1/6
f 452/5/6 453/5/6 457/5/6
f 453/5/6 454/5/6 457/5/6
f 457/5/6 454/5/6 458/5/6
f 455/1/6 456/1/6 459/1/6
f 458/5/6 454/5/6 459/5/6
f 454/1/6 455/1/6 459/1/6
f 459/1/6 456/1/6 460/1/6
f 458/5/6 459/5/6 461/5/6
f 459/5/6 460/5/6 461/5/6
f 461/5/6 460/5/6 462/5/6
f 462/5/6 460/5/6 463/5/6
f 462/5/6 463/5/6 465/5/6
f 463/5/6 464/5/6 465/5/6
f 465/5/6 464/5/6 466/5/6
