# MagicaVoxel @ Ephtracy

# material
mtllib BossBrokenLog 1 type2.mtl
usemtl palette

# normals
vn -1 0 0
vn 1 0 0
vn 0 0 1
vn 0 0 -1
vn 0 -1 0
vn 0 1 0

# texcoords
vt 0.00976563 0.5
vt 0.0214844 0.5
vt 0.0644531 0.5
vt 0.0683594 0.5
vt 0.0839844 0.5
vt 0.177734 0.5
vt 0.306641 0.5
vt 0.369141 0.5
vt 0.373047 0.5

# verts
v -20.5 0 4.5
v -20.5 0 -4.5
v -20.5 11 4.5
v -20.5 11 -4.5
v -19.5 0 7.5
v -19.5 0 4.5
v -19.5 0 -4.5
v -19.5 0 -7.5
v -19.5 11 7.5
v -19.5 11 4.5
v -19.5 11 -4.5
v -19.5 11 -7.5
v -18.5 0 9.5
v -18.5 0 7.5
v -18.5 0 -7.5
v -18.5 0 -9.5
v -18.5 11 9.5
v -18.5 11 7.5
v -18.5 11 -7.5
v -18.5 11 -9.5
v -17.5 0 11.5
v -17.5 0 9.5
v -17.5 0 -9.5
v -17.5 0 -11.5
v -17.5 11 11.5
v -17.5 11 9.5
v -17.5 11 -9.5
v -17.5 11 -11.5
v -16.5 0 12.5
v -16.5 0 11.5
v -16.5 0 -11.5
v -16.5 0 -12.5
v -16.5 11 12.5
v -16.5 11 11.5
v -16.5 11 -11.5
v -16.5 11 -12.5
v -15.5 0 13.5
v -15.5 0 12.5
v -15.5 0 -12.5
v -15.5 0 -13.5
v -15.5 11 13.5
v -15.5 11 12.5
v -15.5 11 -12.5
v -15.5 11 -13.5
v -13.5 0 13.5
v -13.5 0 12.5
v -13.5 0 -12.5
v -13.5 0 -13.5
v -13.5 1 13.5
v -13.5 1 12.5
v -13.5 1 -12.5
v -13.5 1 -13.5
v -13.5 10 13.5
v -13.5 10 12.5
v -13.5 10 -12.5
v -13.5 10 -13.5
v -13.5 11 13.5
v -13.5 11 12.5
v -13.5 11 -12.5
v -13.5 11 -13.5
v -12.5 0 -10.5
v -12.5 0 -11.5
v -12.5 0 -12.5
v -12.5 11 -10.5
v -12.5 11 -11.5
v -12.5 11 -12.5
v -11.5 0 12.5
v -11.5 0 11.5
v -11.5 0 -9.5
v -11.5 0 -10.5
v -11.5 11 12.5
v -11.5 11 11.5
v -11.5 11 -9.5
v -11.5 11 -10.5
v -10.5 0 11.5
v -10.5 0 10.5
v -10.5 0 -8.5
v -10.5 0 -9.5
v -10.5 11 11.5
v -10.5 11 10.5
v -10.5 11 -8.5
v -10.5 11 -9.5
v -9.5 0 10.5
v -9.5 0 9.5
v -9.5 0 -7.5
v -9.5 0 -8.5
v -9.5 11 10.5
v -9.5 11 9.5
v -9.5 11 -7.5
v -9.5 11 -8.5
v -8.5 0 9.5
v -8.5 0 8.5
v -8.5 0 -6.5
v -8.5 0 -7.5
v -8.5 11 9.5
v -8.5 11 8.5
v -8.5 11 -6.5
v -8.5 11 -7.5
v -7.5 0 8.5
v -7.5 0 7.5
v -7.5 0 6.5
v -7.5 0 -5.5
v -7.5 0 -6.5
v -7.5 11 8.5
v -7.5 11 7.5
v -7.5 11 6.5
v -7.5 11 -5.5
v -7.5 11 -6.5
v -6.5 0 6.5
v -6.5 0 5.5
v -6.5 0 -4.5
v -6.5 0 -5.5
v -6.5 11 6.5
v -6.5 11 5.5
v -6.5 11 -4.5
v -6.5 11 -5.5
v -5.5 0 5.5
v -5.5 0 4.5
v -5.5 11 5.5
v -5.5 11 4.5
v -4.5 0 4.5
v -4.5 0 3.5
v -4.5 0 -3.5
v -4.5 0 -4.5
v -4.5 11 4.5
v -4.5 11 3.5
v -4.5 11 -3.5
v -4.5 11 -4.5
v -3.5 0 3.5
v -3.5 0 2.5
v -3.5 0 -2.5
v -3.5 0 -3.5
v -3.5 11 3.5
v -3.5 11 2.5
v -3.5 11 -2.5
v -3.5 11 -3.5
v -2.5 0 -1.5
v -2.5 0 -2.5
v -2.5 11 -1.5
v -2.5 11 -2.5
v -1.5 0 2.5
v -1.5 0 0.5
v -1.5 0 -0.5
v -1.5 0 -1.5
v -1.5 11 2.5
v -1.5 11 0.5
v -1.5 11 -0.5
v -1.5 11 -1.5
v -0.5 0 0.5
v -0.5 0 -0.5
v -0.5 11 0.5
v -0.5 11 -0.5
v -15.5 0 13.5
v -15.5 11 13.5
v -14.5 1 13.5
v -14.5 10 13.5
v -13.5 0 13.5
v -13.5 1 13.5
v -13.5 10 13.5
v -13.5 11 13.5
v -16.5 0 12.5
v -16.5 11 12.5
v -15.5 0 12.5
v -15.5 11 12.5
v -13.5 0 12.5
v -13.5 1 12.5
v -13.5 10 12.5
v -13.5 11 12.5
v -11.5 0 12.5
v -11.5 11 12.5
v -17.5 0 11.5
v -17.5 11 11.5
v -16.5 0 11.5
v -16.5 11 11.5
v -11.5 0 11.5
v -11.5 11 11.5
v -10.5 0 11.5
v -10.5 11 11.5
v -10.5 0 10.5
v -10.5 11 10.5
v -9.5 0 10.5
v -9.5 11 10.5
v -18.5 0 9.5
v -18.5 11 9.5
v -17.5 0 9.5
v -17.5 11 9.5
v -9.5 0 9.5
v -9.5 11 9.5
v -8.5 0 9.5
v -8.5 11 9.5
v -8.5 0 8.5
v -8.5 11 8.5
v -7.5 0 8.5
v -7.5 11 8.5
v -19.5 0 7.5
v -19.5 11 7.5
v -18.5 0 7.5
v -18.5 11 7.5
v -7.5 0 6.5
v -7.5 11 6.5
v -6.5 0 6.5
v -6.5 11 6.5
v -6.5 0 5.5
v -6.5 11 5.5
v -5.5 0 5.5
v -5.5 11 5.5
v -20.5 0 4.5
v -20.5 11 4.5
v -19.5 0 4.5
v -19.5 11 4.5
v -5.5 0 4.5
v -5.5 11 4.5
v -4.5 0 4.5
v -4.5 11 4.5
v -4.5 0 3.5
v -4.5 11 3.5
v -3.5 0 3.5
v -3.5 11 3.5
v -3.5 0 2.5
v -3.5 11 2.5
v -2.5 0 2.5
v -2.5 11 2.5
v -1.5 0 2.5
v -1.5 11 2.5
v -1.5 0 0.5
v -1.5 11 0.5
v -0.5 0 0.5
v -0.5 11 0.5
v -1.5 0 -0.5
v -1.5 11 -0.5
v -0.5 0 -0.5
v -0.5 11 -0.5
v -2.5 0 -1.5
v -2.5 11 -1.5
v -1.5 0 -1.5
v -1.5 11 -1.5
v -3.5 0 -2.5
v -3.5 11 -2.5
v -2.5 0 -2.5
v -2.5 11 -2.5
v -4.5 0 -3.5
v -4.5 11 -3.5
v -3.5 0 -3.5
v -3.5 11 -3.5
v -20.5 0 -4.5
v -20.5 11 -4.5
v -19.5 0 -4.5
v -19.5 11 -4.5
v -6.5 0 -4.5
v -6.5 11 -4.5
v -5.5 0 -4.5
v -5.5 11 -4.5
v -4.5 0 -4.5
v -4.5 11 -4.5
v -7.5 0 -5.5
v -7.5 11 -5.5
v -6.5 0 -5.5
v -6.5 11 -5.5
v -8.5 0 -6.5
v -8.5 11 -6.5
v -7.5 0 -6.5
v -7.5 11 -6.5
v -19.5 0 -7.5
v -19.5 11 -7.5
v -18.5 0 -7.5
v -18.5 11 -7.5
v -9.5 0 -7.5
v -9.5 11 -7.5
v -8.5 0 -7.5
v -8.5 11 -7.5
v -10.5 0 -8.5
v -10.5 11 -8.5
v -9.5 0 -8.5
v -9.5 11 -8.5
v -18.5 0 -9.5
v -18.5 11 -9.5
v -17.5 0 -9.5
v -17.5 11 -9.5
v -11.5 0 -9.5
v -11.5 11 -9.5
v -10.5 0 -9.5
v -10.5 11 -9.5
v -12.5 0 -10.5
v -12.5 11 -10.5
v -11.5 0 -10.5
v -11.5 11 -10.5
v -17.5 0 -11.5
v -17.5 11 -11.5
v -16.5 0 -11.5
v -16.5 11 -11.5
v -16.5 0 -12.5
v -16.5 11 -12.5
v -15.5 0 -12.5
v -15.5 11 -12.5
v -13.5 0 -12.5
v -13.5 1 -12.5
v -13.5 10 -12.5
v -13.5 11 -12.5
v -12.5 0 -12.5
v -12.5 11 -12.5
v -15.5 0 -13.5
v -15.5 11 -13.5
v -14.5 1 -13.5
v -14.5 10 -13.5
v -13.5 0 -13.5
v -13.5 1 -13.5
v -13.5 10 -13.5
v -13.5 11 -13.5
v -15.5 0 13.5
v -13.5 0 13.5
v -16.5 0 12.5
v -15.5 0 12.5
v -14.5 0 12.5
v -13.5 0 12.5
v -11.5 0 12.5
v -17.5 0 11.5
v -16.5 0 11.5
v -15.5 0 11.5
v -14.5 0 11.5
v -13.5 0 11.5
v -11.5 0 11.5
v -10.5 0 11.5
v -16.5 0 10.5
v -15.5 0 10.5
v -14.5 0 10.5
v -13.5 0 10.5
v -11.5 0 10.5
v -10.5 0 10.5
v -9.5 0 10.5
v -18.5 0 9.5
v -17.5 0 9.5
v -15.5 0 9.5
v -14.5 0 9.5
v -10.5 0 9.5
v -9.5 0 9.5
v -8.5 0 9.5
v -17.5 0 8.5
v -16.5 0 8.5
v -9.5 0 8.5
v -8.5 0 8.5
v -7.5 0 8.5
v -19.5 0 7.5
v -18.5 0 7.5
v -16.5 0 7.5
v -15.5 0 7.5
v -8.5 0 7.5
v -7.5 0 7.5
v -18.5 0 6.5
v -17.5 0 6.5
v -7.5 0 6.5
v -6.5 0 6.5
v -17.5 0 5.5
v -16.5 0 5.5
v -6.5 0 5.5
v -5.5 0 5.5
v -20.5 0 4.5
v -19.5 0 4.5
v -5.5 0 4.5
v -4.5 0 4.5
v -19.5 0 3.5
v -18.5 0 3.5
v -4.5 0 3.5
v -3.5 0 3.5
v -18.5 0 2.5
v -17.5 0 2.5
v -3.5 0 2.5
v -2.5 0 2.5
v -1.5 0 2.5
v -18.5 0 0.5
v -2.5 0 0.5
v -1.5 0 0.5
v -0.5 0 0.5
v -18.5 0 -0.5
v -2.5 0 -0.5
v -1.5 0 -0.5
v -0.5 0 -0.5
v -3.5 0 -1.5
v -2.5 0 -1.5
v -1.5 0 -1.5
v -18.5 0 -2.5
v -17.5 0 -2.5
v -4.5 0 -2.5
v -3.5 0 -2.5
v -2.5 0 -2.5
v -19.5 0 -3.5
v -18.5 0 -3.5
v -5.5 0 -3.5
v -4.5 0 -3.5
v -3.5 0 -3.5
v -20.5 0 -4.5
v -19.5 0 -4.5
v -6.5 0 -4.5
v -5.5 0 -4.5
v -4.5 0 -4.5
v -17.5 0 -5.5
v -16.5 0 -5.5
v -7.5 0 -5.5
v -6.5 0 -5.5
v -18.5 0 -6.5
v -17.5 0 -6.5
v -8.5 0 -6.5
v -7.5 0 -6.5
v -19.5 0 -7.5
v -18.5 0 -7.5
v -16.5 0 -7.5
v -15.5 0 -7.5
v -9.5 0 -7.5
v -8.5 0 -7.5
v -17.5 0 -8.5
v -16.5 0 -8.5
v -10.5 0 -8.5
v -9.5 0 -8.5
v -18.5 0 -9.5
v -17.5 0 -9.5
v -15.5 0 -9.5
v -14.5 0 -9.5
v -11.5 0 -9.5
v -10.5 0 -9.5
v -16.5 0 -10.5
v -15.5 0 -10.5
v -14.5 0 -10.5
v -13.5 0 -10.5
v -12.5 0 -10.5
v -11.5 0 -10.5
v -17.5 0 -11.5
v -16.5 0 -11.5
v -15.5 0 -11.5
v -14.5 0 -11.5
v -13.5 0 -11.5
v -12.5 0 -11.5
v -16.5 0 -12.5
v -15.5 0 -12.5
v -14.5 0 -12.5
v -13.5 0 -12.5
v -12.5 0 -12.5
v -15.5 0 -13.5
v -13.5 0 -13.5
v -15.5 11 13.5
v -13.5 11 13.5
v -16.5 11 12.5
v -15.5 11 12.5
v -14.5 11 12.5
v -13.5 11 12.5
v -11.5 11 12.5
v -17.5 11 11.5
v -16.5 11 11.5
v -15.5 11 11.5
v -14.5 11 11.5
v -13.5 11 11.5
v -11.5 11 11.5
v -10.5 11 11.5
v -16.5 11 10.5
v -15.5 11 10.5
v -14.5 11 10.5
v -13.5 11 10.5
v -11.5 11 10.5
v -10.5 11 10.5
v -9.5 11 10.5
v -18.5 11 9.5
v -17.5 11 9.5
v -15.5 11 9.5
v -14.5 11 9.5
v -10.5 11 9.5
v -9.5 11 9.5
v -8.5 11 9.5
v -17.5 11 8.5
v -16.5 11 8.5
v -9.5 11 8.5
v -8.5 11 8.5
v -7.5 11 8.5
v -19.5 11 7.5
v -18.5 11 7.5
v -16.5 11 7.5
v -15.5 11 7.5
v -8.5 11 7.5
v -7.5 11 7.5
v -18.5 11 6.5
v -17.5 11 6.5
v -7.5 11 6.5
v -6.5 11 6.5
v -17.5 11 5.5
v -16.5 11 5.5
v -6.5 11 5.5
v -5.5 11 5.5
v -20.5 11 4.5
v -19.5 11 4.5
v -5.5 11 4.5
v -4.5 11 4.5
v -19.5 11 3.5
v -18.5 11 3.5
v -4.5 11 3.5
v -3.5 11 3.5
v -18.5 11 2.5
v -17.5 11 2.5
v -3.5 11 2.5
v -2.5 11 2.5
v -1.5 11 2.5
v -18.5 11 0.5
v -2.5 11 0.5
v -1.5 11 0.5
v -0.5 11 0.5
v -18.5 11 -0.5
v -2.5 11 -0.5
v -1.5 11 -0.5
v -0.5 11 -0.5
v -3.5 11 -1.5
v -2.5 11 -1.5
v -1.5 11 -1.5
v -18.5 11 -2.5
v -17.5 11 -2.5
v -4.5 11 -2.5
v -3.5 11 -2.5
v -2.5 11 -2.5
v -19.5 11 -3.5
v -18.5 11 -3.5
v -5.5 11 -3.5
v -4.5 11 -3.5
v -3.5 11 -3.5
v -20.5 11 -4.5
v -19.5 11 -4.5
v -6.5 11 -4.5
v -5.5 11 -4.5
v -4.5 11 -4.5
v -17.5 11 -5.5
v -16.5 11 -5.5
v -7.5 11 -5.5
v -6.5 11 -5.5
v -18.5 11 -6.5
v -17.5 11 -6.5
v -8.5 11 -6.5
v -7.5 11 -6.5
v -19.5 11 -7.5
v -18.5 11 -7.5
v -16.5 11 -7.5
v -15.5 11 -7.5
v -9.5 11 -7.5
v -8.5 11 -7.5
v -17.5 11 -8.5
v -16.5 11 -8.5
v -10.5 11 -8.5
v -9.5 11 -8.5
v -18.5 11 -9.5
v -17.5 11 -9.5
v -15.5 11 -9.5
v -14.5 11 -9.5
v -11.5 11 -9.5
v -10.5 11 -9.5
v -16.5 11 -10.5
v -15.5 11 -10.5
v -14.5 11 -10.5
v -13.5 11 -10.5
v -12.5 11 -10.5
v -11.5 11 -10.5
v -17.5 11 -11.5
v -16.5 11 -11.5
v -15.5 11 -11.5
v -14.5 11 -11.5
v -13.5 11 -11.5
v -12.5 11 -11.5
v -16.5 11 -12.5
v -15.5 11 -12.5
v -14.5 11 -12.5
v -13.5 11 -12.5
v -12.5 11 -12.5
v -15.5 11 -13.5
v -13.5 11 -13.5

# faces
f 3/3/1 2/3/1 1/3/1
f 4/3/1 2/3/1 3/3/1
f 9/3/1 6/3/1 5/3/1
f 10/3/1 6/3/1 9/3/1
f 11/3/1 8/3/1 7/3/1
f 12/3/1 8/3/1 11/3/1
f 17/3/1 14/3/1 13/3/1
f 18/3/1 14/3/1 17/3/1
f 19/3/1 16/3/1 15/3/1
f 20/3/1 16/3/1 19/3/1
f 25/3/1 22/3/1 21/3/1
f 26/3/1 22/3/1 25/3/1
f 27/3/1 24/3/1 23/3/1
f 28/3/1 24/3/1 27/3/1
f 33/3/1 30/3/1 29/3/1
f 34/3/1 30/3/1 33/3/1
f 35/3/1 32/3/1 31/3/1
f 36/3/1 32/3/1 35/3/1
f 41/3/1 38/3/1 37/3/1
f 42/3/1 38/3/1 41/3/1
f 43/3/1 40/3/1 39/3/1
f 44/3/1 40/3/1 43/3/1
f 45/3/2 46/3/2 49/3/2
f 49/3/2 46/3/2 50/3/2
f 47/3/2 48/3/2 51/3/2
f 51/3/2 48/3/2 52/3/2
f 49/4/2 50/4/2 53/4/2
f 53/4/2 50/4/2 54/4/2
f 51/4/2 52/4/2 55/4/2
f 55/4/2 52/4/2 56/4/2
f 53/3/2 54/3/2 57/3/2
f 57/3/2 54/3/2 58/3/2
f 55/3/2 56/3/2 59/3/2
f 59/3/2 56/3/2 60/3/2
f 61/2/2 62/2/2 64/2/2
f 62/1/2 63/1/2 65/1/2
f 64/2/2 62/2/2 65/2/2
f 65/1/2 63/1/2 66/1/2
f 67/1/2 68/1/2 71/1/2
f 71/1/2 68/1/2 72/1/2
f 69/2/2 70/2/2 73/2/2
f 73/2/2 70/2/2 74/2/2
f 75/1/2 76/1/2 79/1/2
f 79/1/2 76/1/2 80/1/2
f 77/2/2 78/2/2 81/2/2
f 81/2/2 78/2/2 82/2/2
f 83/1/2 84/1/2 87/1/2
f 87/1/2 84/1/2 88/1/2
f 85/2/2 86/2/2 89/2/2
f 89/2/2 86/2/2 90/2/2
f 91/1/2 92/1/2 95/1/2
f 95/1/2 92/1/2 96/1/2
f 93/2/2 94/2/2 97/2/2
f 97/2/2 94/2/2 98/2/2
f 99/1/2 100/1/2 104/1/2
f 100/2/2 101/2/2 105/2/2
f 104/1/2 100/1/2 105/1/2
f 105/2/2 101/2/2 106/2/2
f 102/2/2 103/2/2 107/2/2
f 107/2/2 103/2/2 108/2/2
f 109/2/2 110/2/2 113/2/2
f 113/2/2 110/2/2 114/2/2
f 111/2/2 112/2/2 115/2/2
f 115/2/2 112/2/2 116/2/2
f 117/2/2 118/2/2 119/2/2
f 119/2/2 118/2/2 120/2/2
f 121/2/2 122/2/2 125/2/2
f 125/2/2 122/2/2 126/2/2
f 123/1/2 124/1/2 127/1/2
f 127/1/2 124/1/2 128/1/2
f 129/2/2 130/2/2 133/2/2
f 133/2/2 130/2/2 134/2/2
f 131/1/2 132/1/2 135/1/2
f 135/1/2 132/1/2 136/1/2
f 137/1/2 138/1/2 139/1/2
f 139/1/2 138/1/2 140/1/2
f 141/1/2 142/1/2 145/1/2
f 145/1/2 142/1/2 146/1/2
f 143/1/2 144/1/2 147/1/2
f 147/1/2 144/1/2 148/1/2
f 149/1/2 150/1/2 151/1/2
f 151/1/2 150/1/2 152/1/2
f 155/3/3 154/3/3 153/3/3
f 156/3/3 154/3/3 155/3/3
f 157/3/3 155/3/3 153/3/3
f 158/4/3 156/4/3 155/4/3
f 158/3/3 155/3/3 157/3/3
f 159/3/3 154/3/3 156/3/3
f 159/4/3 156/4/3 158/4/3
f 160/3/3 154/3/3 159/3/3
f 163/3/3 162/3/3 161/3/3
f 164/3/3 162/3/3 163/3/3
f 169/1/3 166/1/3 165/1/3
f 169/1/3 168/1/3 167/1/3
f 169/1/3 167/1/3 166/1/3
f 170/1/3 168/1/3 169/1/3
f 173/3/3 172/3/3 171/3/3
f 174/3/3 172/3/3 173/3/3
f 177/1/3 176/1/3 175/1/3
f 178/1/3 176/1/3 177/1/3
f 181/1/3 180/1/3 179/1/3
f 182/1/3 180/1/3 181/1/3
f 185/3/3 184/3/3 183/3/3
f 186/3/3 184/3/3 185/3/3
f 189/1/3 188/1/3 187/1/3
f 190/1/3 188/1/3 189/1/3
f 193/1/3 192/1/3 191/1/3
f 194/1/3 192/1/3 193/1/3
f 197/3/3 196/3/3 195/3/3
f 198/3/3 196/3/3 197/3/3
f 201/2/3 200/2/3 199/2/3
f 202/2/3 200/2/3 201/2/3
f 205/2/3 204/2/3 203/2/3
f 206/2/3 204/2/3 205/2/3
f 209/3/3 208/3/3 207/3/3
f 210/3/3 208/3/3 209/3/3
f 213/2/3 212/2/3 211/2/3
f 214/2/3 212/2/3 213/2/3
f 217/2/3 216/2/3 215/2/3
f 218/2/3 216/2/3 217/2/3
f 221/2/3 220/2/3 219/2/3
f 222/2/3 220/2/3 221/2/3
f 223/1/3 222/1/3 221/1/3
f 224/1/3 222/1/3 223/1/3
f 227/1/3 226/1/3 225/1/3
f 228/1/3 226/1/3 227/1/3
f 229/1/4 230/1/4 231/1/4
f 231/1/4 230/1/4 232/1/4
f 233/1/4 234/1/4 235/1/4
f 235/1/4 234/1/4 236/1/4
f 237/1/4 238/1/4 239/1/4
f 239/1/4 238/1/4 240/1/4
f 241/1/4 242/1/4 243/1/4
f 243/1/4 242/1/4 244/1/4
f 245/3/4 246/3/4 247/3/4
f 247/3/4 246/3/4 248/3/4
f 249/2/4 250/2/4 251/2/4
f 251/2/4 250/2/4 252/2/4
f 251/1/4 252/1/4 253/1/4
f 253/1/4 252/1/4 254/1/4
f 255/2/4 256/2/4 257/2/4
f 257/2/4 256/2/4 258/2/4
f 259/2/4 260/2/4 261/2/4
f 261/2/4 260/2/4 262/2/4
f 263/3/4 264/3/4 265/3/4
f 265/3/4 264/3/4 266/3/4
f 267/2/4 268/2/4 269/2/4
f 269/2/4 268/2/4 270/2/4
f 271/2/4 272/2/4 273/2/4
f 273/2/4 272/2/4 274/2/4
f 275/3/4 276/3/4 277/3/4
f 277/3/4 276/3/4 278/3/4
f 279/2/4 280/2/4 281/2/4
f 281/2/4 280/2/4 282/2/4
f 283/2/4 284/2/4 285/2/4
f 285/2/4 284/2/4 286/2/4
f 287/3/4 288/3/4 289/3/4
f 289/3/4 288/3/4 290/3/4
f 291/3/4 292/3/4 293/3/4
f 293/3/4 292/3/4 294/3/4
f 295/1/4 296/1/4 299/1/4
f 297/1/4 298/1/4 299/1/4
f 296/1/4 297/1/4 299/1/4
f 299/1/4 298/1/4 300/1/4
f 301/3/4 302/3/4 303/3/4
f 303/3/4 302/3/4 304/3/4
f 301/3/4 303/3/4 305/3/4
f 303/4/4 304/4/4 306/4/4
f 305/3/4 303/3/4 306/3/4
f 304/3/4 302/3/4 307/3/4
f 306/4/4 304/4/4 307/4/4
f 307/3/4 302/3/4 308/3/4
f 312/3/5 310/3/5 309/3/5
f 313/3/5 310/3/5 312/3/5
f 314/3/5 310/3/5 313/3/5
f 317/3/5 312/3/5 311/3/5
f 317/3/5 313/3/5 312/3/5
f 318/3/5 313/3/5 317/3/5
f 319/1/5 315/1/5 314/1/5
f 319/3/5 313/3/5 318/3/5
f 319/1/5 314/1/5 313/1/5
f 320/1/5 315/1/5 319/1/5
f 321/1/5 315/1/5 320/1/5
f 323/3/5 318/3/5 317/3/5
f 323/3/5 317/3/5 316/3/5
f 324/1/5 319/1/5 318/1/5
f 324/3/5 318/3/5 323/3/5
f 324/1/5 320/1/5 319/1/5
f 325/1/5 320/1/5 324/1/5
f 326/2/5 321/2/5 320/2/5
f 326/1/5 320/1/5 325/1/5
f 327/1/5 322/1/5 321/1/5
f 327/2/5 321/2/5 326/2/5
f 328/1/5 322/1/5 327/1/5
f 331/3/5 323/3/5 316/3/5
f 332/1/5 325/1/5 324/1/5
f 332/1/5 324/1/5 323/1/5
f 333/2/5 326/2/5 325/2/5
f 333/1/5 325/1/5 332/1/5
f 333/2/5 327/2/5 326/2/5
f 333/2/5 328/2/5 327/2/5
f 334/1/5 329/1/5 328/1/5
f 334/2/5 328/2/5 333/2/5
f 335/1/5 329/1/5 334/1/5
f 337/3/5 331/3/5 330/3/5
f 337/3/5 323/3/5 331/3/5
f 338/1/5 332/1/5 323/1/5
f 338/3/5 323/3/5 337/3/5
f 339/1/5 336/1/5 335/1/5
f 339/2/5 333/2/5 332/2/5
f 339/2/5 335/2/5 334/2/5
f 339/2/5 334/2/5 333/2/5
f 340/1/5 336/1/5 339/1/5
f 343/3/5 337/3/5 330/3/5
f 344/1/5 332/1/5 338/1/5
f 344/1/5 338/1/5 337/1/5
f 345/2/5 339/2/5 332/2/5
f 345/1/5 332/1/5 344/1/5
f 345/2/5 340/2/5 339/2/5
f 346/1/5 341/1/5 340/1/5
f 346/2/5 340/2/5 345/2/5
f 347/1/5 341/1/5 346/1/5
f 348/3/5 343/3/5 342/3/5
f 348/3/5 337/3/5 343/3/5
f 349/1/5 344/1/5 337/1/5
f 349/3/5 337/3/5 348/3/5
f 350/2/5 345/2/5 344/2/5
f 350/2/5 347/2/5 346/2/5
f 350/2/5 346/2/5 345/2/5
f 352/1/5 344/1/5 349/1/5
f 352/1/5 349/1/5 348/1/5
f 353/2/5 351/2/5 350/2/5
f 353/1/5 344/1/5 352/1/5
f 353/2/5 350/2/5 344/2/5
f 354/2/5 351/2/5 353/2/5
f 357/3/5 348/3/5 342/3/5
f 358/2/5 355/2/5 354/2/5
f 358/2/5 353/2/5 352/2/5
f 358/2/5 354/2/5 353/2/5
f 360/3/5 357/3/5 356/3/5
f 360/3/5 348/3/5 357/3/5
f 361/1/5 352/1/5 348/1/5
f 361/3/5 348/3/5 360/3/5
f 362/2/5 359/2/5 358/2/5
f 364/1/5 352/1/5 361/1/5
f 364/1/5 361/1/5 360/1/5
f 365/2/5 363/2/5 362/2/5
f 365/1/5 352/1/5 364/1/5
f 365/2/5 358/2/5 352/2/5
f 365/2/5 362/2/5 358/2/5
f 366/2/5 363/2/5 365/2/5
f 369/1/5 364/1/5 360/1/5
f 369/2/5 365/2/5 364/2/5
f 369/2/5 367/2/5 366/2/5
f 369/2/5 366/2/5 365/2/5
f 370/1/5 368/1/5 367/1/5
f 370/2/5 367/2/5 369/2/5
f 371/1/5 368/1/5 370/1/5
f 373/1/5 369/1/5 360/1/5
f 373/1/5 372/1/5 371/1/5
f 373/1/5 371/1/5 370/1/5
f 373/1/5 370/1/5 369/1/5
f 374/1/5 372/1/5 373/1/5
f 375/1/5 372/1/5 374/1/5
f 376/1/5 372/1/5 375/1/5
f 377/2/5 374/2/5 373/2/5
f 378/1/5 375/1/5 374/1/5
f 378/2/5 374/2/5 377/2/5
f 379/1/5 375/1/5 378/1/5
f 380/1/5 373/1/5 360/1/5
f 380/2/5 377/2/5 373/2/5
f 381/2/5 377/2/5 380/2/5
f 382/2/5 377/2/5 381/2/5
f 383/1/5 378/1/5 377/1/5
f 383/2/5 377/2/5 382/2/5
f 384/1/5 378/1/5 383/1/5
f 385/3/5 360/3/5 356/3/5
f 385/1/5 380/1/5 360/1/5
f 385/1/5 381/1/5 380/1/5
f 386/1/5 381/1/5 385/1/5
f 387/2/5 382/2/5 381/2/5
f 388/1/5 383/1/5 382/1/5
f 388/2/5 382/2/5 387/2/5
f 389/1/5 383/1/5 388/1/5
f 390/3/5 385/3/5 356/3/5
f 390/3/5 386/3/5 385/3/5
f 391/3/5 386/3/5 390/3/5
f 392/2/5 387/2/5 381/2/5
f 393/1/5 388/1/5 387/1/5
f 393/2/5 387/2/5 392/2/5
f 394/1/5 388/1/5 393/1/5
f 395/1/5 381/1/5 386/1/5
f 395/2/5 392/2/5 381/2/5
f 396/2/5 392/2/5 395/2/5
f 397/2/5 392/2/5 396/2/5
f 398/2/5 392/2/5 397/2/5
f 399/3/5 386/3/5 391/3/5
f 399/1/5 395/1/5 386/1/5
f 399/1/5 396/1/5 395/1/5
f 400/1/5 396/1/5 399/1/5
f 401/2/5 397/2/5 396/2/5
f 402/2/5 397/2/5 401/2/5
f 403/3/5 399/3/5 391/3/5
f 403/3/5 400/3/5 399/3/5
f 404/3/5 400/3/5 403/3/5
f 405/1/5 396/1/5 400/1/5
f 405/2/5 401/2/5 396/2/5
f 406/2/5 401/2/5 405/2/5
f 407/2/5 401/2/5 406/2/5
f 408/2/5 401/2/5 407/2/5
f 409/3/5 400/3/5 404/3/5
f 409/1/5 405/1/5 400/1/5
f 409/1/5 406/1/5 405/1/5
f 410/1/5 406/1/5 409/1/5
f 411/2/5 407/2/5 406/2/5
f 412/2/5 407/2/5 411/2/5
f 413/3/5 409/3/5 404/3/5
f 413/3/5 410/3/5 409/3/5
f 414/3/5 410/3/5 413/3/5
f 415/1/5 406/1/5 410/1/5
f 415/2/5 411/2/5 406/2/5
f 416/2/5 411/2/5 415/2/5
f 417/2/5 411/2/5 416/2/5
f 418/2/5 411/2/5 417/2/5
f 419/3/5 410/3/5 414/3/5
f 419/1/5 415/1/5 410/1/5
f 419/1/5 416/1/5 415/1/5
f 420/1/5 416/1/5 419/1/5
f 421/2/5 417/2/5 416/2/5
f 421/1/5 416/1/5 420/1/5
f 422/2/5 417/2/5 421/2/5
f 423/2/5 417/2/5 422/2/5
f 424/2/5 417/2/5 423/2/5
f 425/3/5 420/3/5 419/3/5
f 425/3/5 419/3/5 414/3/5
f 426/3/5 420/3/5 425/3/5
f 427/1/5 421/1/5 420/1/5
f 427/3/5 420/3/5 426/3/5
f 427/1/5 422/1/5 421/1/5
f 428/1/5 422/1/5 427/1/5
f 429/2/5 423/2/5 422/2/5
f 429/1/5 422/1/5 428/1/5
f 430/2/5 423/2/5 429/2/5
f 431/3/5 428/3/5 427/3/5
f 431/3/5 427/3/5 426/3/5
f 432/3/5 428/3/5 431/3/5
f 433/1/5 430/1/5 429/1/5
f 433/3/5 428/3/5 432/3/5
f 433/1/5 429/1/5 428/1/5
f 434/1/5 430/1/5 433/1/5
f 435/1/5 430/1/5 434/1/5
f 436/3/5 433/3/5 432/3/5
f 436/3/5 434/3/5 433/3/5
f 437/3/5 434/3/5 436/3/5
f 438/3/6 439/3/6 441/3/6
f 441/3/6 439/3/6 442/3/6
f 442/3/6 439/3/6 443/3/6
f 440/3/6 441/3/6 446/3/6
f 441/3/6 442/3/6 446/3/6
f 446/3/6 442/3/6 447/3/6
f 443/1/6 444/1/6 448/1/6
f 447/3/6 442/3/6 448/3/6
f 442/1/6 443/1/6 448/1/6
f 448/1/6 444/1/6 449/1/6
f 449/1/6 444/1/6 450/1/6
f 446/3/6 447/3/6 452/3/6
f 445/3/6 446/3/6 452/3/6
f 447/1/6 448/1/6 453/1/6
f 452/3/6 447/3/6 453/3/6
f 448/1/6 449/1/6 453/1/6
f 453/1/6 449/1/6 454/1/6
f 449/2/6 450/2/6 455/2/6
f 454/1/6 449/1/6 455/1/6
f 450/1/6 451/1/6 456/1/6
f 455/2/6 450/2/6 456/2/6
f 456/1/6 451/1/6 457/1/6
f 445/3/6 452/3/6 460/3/6
f 453/1/6 454/1/6 461/1/6
f 452/1/6 453/1/6 461/1/6
f 454/2/6 455/2/6 462/2/6
f 461/1/6 454/1/6 462/1/6
f 455/2/6 456/2/6 462/2/6
f 456/2/6 457/2/6 462/2/6
f 457/1/6 458/1/6 463/1/6
f 462/2/6 457/2/6 463/2/6
f 463/1/6 458/1/6 464/1/6
f 459/3/6 460/3/6 466/3/6
f 460/3/6 452/3/6 466/3/6
f 452/1/6 461/1/6 467/1/6
f 466/3/6 452/3/6 467/3/6
f 464/1/6 465/1/6 468/1/6
f 461/2/6 462/2/6 468/2/6
f 463/2/6 464/2/6 468/2/6
f 462/2/6 463/2/6 468/2/6
f 468/1/6 465/1/6 469/1/6
f 459/3/6 466/3/6 472/3/6
f 467/1/6 461/1/6 473/1/6
f 466/1/6 467/1/6 473/1/6
f 461/2/6 468/2/6 474/2/6
f 473/1/6 461/1/6 474/1/6
f 468/2/6 469/2/6 474/2/6
f 469/1/6 470/1/6 475/1/6
f 474/2/6 469/2/6 475/2/6
f 475/1/6 470/1/6 476/1/6
f 471/3/6 472/3/6 477/3/6
f 472/3/6 466/3/6 477/3/6
f 466/1/6 473/1/6 478/1/6
f 477/3/6 466/3/6 478/3/6
f 473/2/6 474/2/6 479/2/6
f 475/2/6 476/2/6 479/2/6
f 474/2/6 475/2/6 479/2/6
f 478/1/6 473/1/6 481/1/6
f 477/1/6 478/1/6 481/1/6
f 479/2/6 480/2/6 482/2/6
f 481/1/6 473/1/6 482/1/6
f 473/2/6 479/2/6 482/2/6
f 482/2/6 480/2/6 483/2/6
f 471/3/6 477/3/6 486/3/6
f 483/2/6 484/2/6 487/2/6
f 481/2/6 482/2/6 487/2/6
f 482/2/6 483/2/6 487/2/6
f 485/3/6 486/3/6 489/3/6
f 486/3/6 477/3/6 489/3/6
f 477/1/6 481/1/6 490/1/6
f 489/3/6 477/3/6 490/3/6
f 487/2/6 488/2/6 491/2/6
f 490/1/6 481/1/6 493/1/6
f 489/1/6 490/1/6 493/1/6
f 491/2/6 492/2/6 494/2/6
f 493/1/6 481/1/6 494/1/6
f 481/2/6 487/2/6 494/2/6
f 487/2/6 491/2/6 494/2/6
f 494/2/6 492/2/6 495/2/6
f 489/1/6 493/1/6 498/1/6
f 493/2/6 494/2/6 498/2/6
f 495/2/6 496/2/6 498/2/6
f 494/2/6 495/2/6 498/2/6
f 496/1/6 497/1/6 499/1/6
f 498/2/6 496/2/6 499/2/6
f 499/1/6 497/1/6 500/1/6
f 489/1/6 498/1/6 502/1/6
f 500/1/6 501/1/6 502/1/6
f 499/1/6 500/1/6 502/1/6
f 498/1/6 499/1/6 502/1/6
f 502/1/6 501/1/6 503/1/6
f 503/1/6 501/1/6 504/1/6
f 504/1/6 501/1/6 505/1/6
f 502/2/6 503/2/6 506/2/6
f 503/1/6 504/1/6 507/1/6
f 506/2/6 503/2/6 507/2/6
f 507/1/6 504/1/6 508/1/6
f 489/1/6 502/1/6 509/1/6
f 502/2/6 506/2/6 509/2/6
f 509/2/6 506/2/6 510/2/6
f 510/2/6 506/2/6 511/2/6
f 506/1/6 507/1/6 512/1/6
f 511/2/6 506/2/6 512/2/6
f 512/1/6 507/1/6 513/1/6
f 485/3/6 489/3/6 514/3/6
f 489/1/6 509/1/6 514/1/6
f 509/1/6 510/1/6 514/1/6
f 514/1/6 510/1/6 515/1/6
f 510/2/6 511/2/6 516/2/6
f 511/1/6 512/1/6 517/1/6
f 516/2/6 511/2/6 517/2/6
f 517/1/6 512/1/6 518/1/6
f 485/3/6 514/3/6 519/3/6
f 514/3/6 515/3/6 519/3/6
f 519/3/6 515/3/6 520/3/6
f 510/2/6 516/2/6 521/2/6
f 516/1/6 517/1/6 522/1/6
f 521/2/6 516/2/6 522/2/6
f 522/1/6 517/1/6 523/1/6
f 515/1/6 510/1/6 524/1/6
f 510/2/6 521/2/6 524/2/6
f 524/2/6 521/2/6 525/2/6
f 525/2/6 521/2/6 526/2/6
f 526/2/6 521/2/6 527/2/6
f 520/3/6 515/3/6 528/3/6
f 515/1/6 524/1/6 528/1/6
f 524/1/6 525/1/6 528/1/6
f 528/1/6 525/1/6 529/1/6
f 525/2/6 526/2/6 530/2/6
f 530/2/6 526/2/6 531/2/6
f 520/3/6 528/3/6 532/3/6
f 528/3/6 529/3/6 532/3/6
f 532/3/6 529/3/6 533/3/6
f 529/1/6 525/1/6 534/1/6
f 525/2/6 530/2/6 534/2/6
f 534/2/6 530/2/6 535/2/6
f 535/2/6 530/2/6 536/2/6
f 536/2/6 530/2/6 537/2/6
f 533/3/6 529/3/6 538/3/6
f 529/1/6 534/1/6 538/1/6
f 534/1/6 535/1/6 538/1/6
f 538/1/6 535/1/6 539/1/6
f 535/2/6 536/2/6 540/2/6
f 540/2/6 536/2/6 541/2/6
f 533/3/6 538/3/6 542/3/6
f 538/3/6 539/3/6 542/3/6
f 542/3/6 539/3/6 543/3/6
f 539/1/6 535/1/6 544/1/6
f 535/2/6 540/2/6 544/2/6
f 544/2/6 540/2/6 545/2/6
f 545/2/6 540/2/6 546/2/6
f 546/2/6 540/2/6 547/2/6
f 543/3/6 539/3/6 548/3/6
f 539/1/6 544/1/6 548/1/6
f 544/1/6 545/1/6 548/1/6
f 548/1/6 545/1/6 549/1/6
f 545/2/6 546/2/6 550/2/6
f 549/1/6 545/1/6 550/1/6
f 550/2/6 546/2/6 551/2/6
f 551/2/6 546/2/6 552/2/6
f 552/2/6 546/2/6 553/2/6
f 548/3/6 549/3/6 554/3/6
f 543/3/6 548/3/6 554/3/6
f 554/3/6 549/3/6 555/3/6
f 549/1/6 550/1/6 556/1/6
f 555/3/6 549/3/6 556/3/6
f 550/1/6 551/1/6 556/1/6
f 556/1/6 551/1/6 557/1/6
f 551/2/6 552/2/6 558/2/6
f 557/1/6 551/1/6 558/1/6
f 558/2/6 552/2/6 559/2/6
f 556/3/6 557/3/6 560/3/6
f 555/3/6 556/3/6 560/3/6
f 560/3/6 557/3/6 561/3/6
f 558/1/6 559/1/6 562/1/6
f 561/3/6 557/3/6 562/3/6
f 557/1/6 558/1/6 562/1/6
f 562/1/6 559/1/6 563/1/6
f 563/1/6 559/1/6 564/1/6
f 561/3/6 562/3/6 565/3/6
f 562/3/6 563/3/6 565/3/6
f 565/3/6 563/3/6 566/3/6
